NotoSansAvestan-Regular.ufo
<glyph name="uni002E" format="2">
  <advance width="287"/>
  <unicode hex="002E"/>
  <outline>
    <contour>
      <point x="138" y="-14" type="curve" smooth="yes"/>
      <point x="184" y="-14"/>
      <point x="215" y="22"/>
      <point x="215" y="63" type="curve" smooth="yes"/>
      <point x="215" y="108"/>
      <point x="189" y="134"/>
      <point x="150" y="134" type="curve" smooth="yes"/>
      <point x="105" y="134"/>
      <point x="72" y="103"/>
      <point x="72" y="50" type="curve" smooth="yes"/>
      <point x="72" y="10"/>
      <point x="94" y="-14"/>
    </contour>
  </outline>
</glyph>
<glyph name="uni00B7" format="2">
  <advance width="287"/>
  <unicode hex="00B7"/>
  <outline>
    <contour>
      <point x="138" y="292" type="curve" smooth="yes"/>
      <point x="184" y="292"/>
      <point x="215" y="328"/>
      <point x="215" y="369" type="curve" smooth="yes"/>
      <point x="215" y="414"/>
      <point x="189" y="440"/>
      <point x="150" y="440" type="curve" smooth="yes"/>
      <point x="105" y="440"/>
      <point x="72" y="409"/>
      <point x="72" y="356" type="curve" smooth="yes"/>
      <point x="72" y="316"/>
      <point x="94" y="292"/>
    </contour>
  </outline>
</glyph>
<glyph name="uni200C" format="2">
  <unicode hex="200C"/>
  <outline>
    <contour>
      <point x="-26" y="-166" type="line"/>
      <point x="26" y="-166" type="line"/>
      <point x="26" y="788" type="line"/>
      <point x="-26" y="788" type="line"/>
    </contour>
  </outline>
</glyph>
<glyph name="uni200D" format="2">
  <unicode hex="200D"/>
  <outline>
    <contour>
      <point x="-26" y="-165" type="line"/>
      <point x="26" y="-165" type="line"/>
      <point x="26" y="585" type="line"/>
      <point x="109" y="503" type="line"/>
      <point x="146" y="539" type="line"/>
      <point x="36" y="646" type="line"/>
      <point x="146" y="751" type="line"/>
      <point x="109" y="788" type="line"/>
      <point x="0" y="680" type="line"/>
      <point x="-109" y="788" type="line"/>
      <point x="-146" y="752" type="line"/>
      <point x="-36" y="646" type="line"/>
      <point x="-146" y="539" type="line"/>
      <point x="-109" y="503" type="line"/>
      <point x="-26" y="585" type="line"/>
    </contour>
  </outline>
</glyph>
<glyph name="uni2E30" format="2">
  <advance width="354"/>
  <unicode hex="2E30"/>
  <outline>
    <contour>
      <point x="177" y="190" type="curve" smooth="yes"/>
      <point x="240" y="190"/>
      <point x="298" y="240"/>
      <point x="298" y="311" type="curve" smooth="yes"/>
      <point x="298" y="377"/>
      <point x="243" y="432"/>
      <point x="177" y="432" type="curve" smooth="yes"/>
      <point x="111" y="432"/>
      <point x="56" y="377"/>
      <point x="56" y="311" type="curve" smooth="yes"/>
      <point x="56" y="242"/>
      <point x="109" y="190"/>
    </contour>
    <contour>
      <point x="177" y="227" type="curve" smooth="yes"/>
      <point x="129" y="227"/>
      <point x="93" y="264"/>
      <point x="93" y="311" type="curve" smooth="yes"/>
      <point x="93" y="356"/>
      <point x="132" y="395"/>
      <point x="177" y="395" type="curve" smooth="yes"/>
      <point x="222" y="395"/>
      <point x="261" y="356"/>
      <point x="261" y="311" type="curve" smooth="yes"/>
      <point x="261" y="267"/>
      <point x="228" y="227"/>
    </contour>
  </outline>
</glyph>
<glyph name="uni2E31" format="2">
  <advance width="425"/>
  <unicode hex="2E31"/>
  <outline>
    <contour>
      <point x="207" y="292" type="curve" smooth="yes"/>
      <point x="253" y="292"/>
      <point x="284" y="328"/>
      <point x="284" y="369" type="curve" smooth="yes"/>
      <point x="284" y="414"/>
      <point x="258" y="440"/>
      <point x="219" y="440" type="curve" smooth="yes"/>
      <point x="174" y="440"/>
      <point x="141" y="409"/>
      <point x="141" y="356" type="curve" smooth="yes"/>
      <point x="141" y="316"/>
      <point x="163" y="292"/>
    </contour>
  </outline>
</glyph>
<glyph name="u10B00" format="2">
  <advance width="797"/>
  <unicode hex="10B00"/>
  <outline>
    <contour>
      <point x="175" y="84" type="curve" smooth="yes"/>
      <point x="270" y="84"/>
      <point x="313" y="121"/>
      <point x="347" y="188" type="curve"/>
      <point x="381" y="121"/>
      <point x="424" y="84"/>
      <point x="517" y="84" type="curve" smooth="yes"/>
      <point x="667" y="84"/>
      <point x="732" y="141"/>
      <point x="732" y="287" type="curve" smooth="yes"/>
      <point x="732" y="326"/>
      <point x="722" y="383"/>
      <point x="712" y="428" type="curve"/>
      <point x="642" y="428" type="line"/>
      <point x="642" y="288" type="line" smooth="yes"/>
      <point x="642" y="192"/>
      <point x="604" y="157"/>
      <point x="513" y="157" type="curve" smooth="yes"/>
      <point x="429" y="157"/>
      <point x="392" y="192"/>
      <point x="392" y="297" type="curve" smooth="yes"/>
      <point x="392" y="333"/>
      <point x="382" y="388"/>
      <point x="372" y="428" type="curve"/>
      <point x="302" y="428" type="line"/>
      <point x="302" y="292" type="line" smooth="yes"/>
      <point x="302" y="196"/>
      <point x="264" y="157"/>
      <point x="170" y="157" type="curve" smooth="yes"/>
      <point x="20" y="157" type="line"/>
      <point x="20" y="94" type="line"/>
      <point x="64" y="88"/>
      <point x="112" y="84"/>
    </contour>
  </outline>
</glyph>
<glyph name="u10B01" format="2">
  <advance width="1136"/>
  <unicode hex="10B01"/>
  <outline>
    <contour>
      <point x="174" y="84" type="curve" smooth="yes"/>
      <point x="269" y="84"/>
      <point x="312" y="121"/>
      <point x="346" y="188" type="curve"/>
      <point x="379" y="121"/>
      <point x="422" y="84"/>
      <point x="513" y="84" type="curve" smooth="yes"/>
      <point x="608" y="84"/>
      <point x="652" y="121"/>
      <point x="686" y="188" type="curve"/>
      <point x="720" y="121"/>
      <point x="763" y="84"/>
      <point x="856" y="84" type="curve" smooth="yes"/>
      <point x="1006" y="84"/>
      <point x="1071" y="141"/>
      <point x="1071" y="287" type="curve" smooth="yes"/>
      <point x="1071" y="327"/>
      <point x="1061" y="383"/>
      <point x="1051" y="428" type="curve"/>
      <point x="981" y="428" type="line"/>
      <point x="981" y="288" type="line" smooth="yes"/>
      <point x="981" y="192"/>
      <point x="943" y="157"/>
      <point x="852" y="157" type="curve" smooth="yes"/>
      <point x="768" y="157"/>
      <point x="731" y="189"/>
      <point x="731" y="295" type="curve" smooth="yes"/>
      <point x="731" y="334"/>
      <point x="721" y="386"/>
      <point x="711" y="428" type="curve"/>
      <point x="641" y="428" type="line"/>
      <point x="641" y="288" type="line" smooth="yes"/>
      <point x="641" y="192"/>
      <point x="603" y="157"/>
      <point x="512" y="157" type="curve" smooth="yes"/>
      <point x="428" y="157"/>
      <point x="391" y="192"/>
      <point x="391" y="298" type="curve" smooth="yes"/>
      <point x="391" y="334"/>
      <point x="381" y="388"/>
      <point x="371" y="428" type="curve"/>
      <point x="301" y="428" type="line"/>
      <point x="301" y="293" type="line" smooth="yes"/>
      <point x="301" y="196"/>
      <point x="263" y="157"/>
      <point x="169" y="157" type="curve" smooth="yes"/>
      <point x="20" y="157" type="line"/>
      <point x="20" y="94" type="line"/>
      <point x="64" y="88"/>
      <point x="112" y="84"/>
    </contour>
  </outline>
</glyph>
<glyph name="u10B02" format="2">
  <advance width="976"/>
  <unicode hex="10B02"/>
  <outline>
    <contour>
      <point x="225" y="-240" type="curve"/>
      <point x="254" y="-169" type="line"/>
      <point x="178" y="-151"/>
      <point x="147" y="-121"/>
      <point x="147" y="-52" type="curve" smooth="yes"/>
      <point x="147" y="21"/>
      <point x="181" y="64"/>
      <point x="264" y="64" type="curve"/>
      <point x="264" y="87" type="line"/>
      <point x="291" y="85"/>
      <point x="320" y="84"/>
      <point x="354" y="84" type="curve" smooth="yes"/>
      <point x="449" y="84"/>
      <point x="492" y="121"/>
      <point x="526" y="188" type="curve"/>
      <point x="560" y="121"/>
      <point x="603" y="84"/>
      <point x="696" y="84" type="curve" smooth="yes"/>
      <point x="846" y="84"/>
      <point x="911" y="141"/>
      <point x="911" y="287" type="curve" smooth="yes"/>
      <point x="911" y="326"/>
      <point x="901" y="383"/>
      <point x="891" y="428" type="curve"/>
      <point x="821" y="428" type="line"/>
      <point x="821" y="288" type="line" smooth="yes"/>
      <point x="821" y="192"/>
      <point x="783" y="157"/>
      <point x="692" y="157" type="curve" smooth="yes"/>
      <point x="608" y="157"/>
      <point x="571" y="192"/>
      <point x="571" y="297" type="curve" smooth="yes"/>
      <point x="571" y="333"/>
      <point x="561" y="388"/>
      <point x="551" y="428" type="curve"/>
      <point x="481" y="428" type="line"/>
      <point x="481" y="292" type="line" smooth="yes"/>
      <point x="481" y="196"/>
      <point x="443" y="157"/>
      <point x="349" y="157" type="curve" smooth="yes"/>
      <point x="199" y="157" type="line"/>
      <point x="199" y="152" type="line"/>
      <point x="162" y="166"/>
      <point x="147" y="195"/>
      <point x="147" y="252" type="curve" smooth="yes"/>
      <point x="147" y="318"/>
      <point x="181" y="360"/>
      <point x="264" y="360" type="curve"/>
      <point x="264" y="438" type="line"/>
      <point x="133" y="438"/>
      <point x="55" y="368"/>
      <point x="55" y="253" type="curve" smooth="yes"/>
      <point x="55" y="179"/>
      <point x="85" y="128"/>
      <point x="160" y="100" type="curve"/>
      <point x="95" y="69"/>
      <point x="55" y="24"/>
      <point x="55" y="-53" type="curve" smooth="yes"/>
      <point x="55" y="-160"/>
      <point x="110" y="-216"/>
    </contour>
  </outline>
</glyph>
<glyph name="u10B03" format="2">
  <advance width="1316"/>
  <unicode hex="10B03"/>
  <outline>
    <contour>
      <point x="225" y="-240" type="curve"/>
      <point x="254" y="-169" type="line"/>
      <point x="178" y="-151"/>
      <point x="147" y="-121"/>
      <point x="147" y="-52" type="curve" smooth="yes"/>
      <point x="147" y="21"/>
      <point x="181" y="64"/>
      <point x="264" y="64" type="curve"/>
      <point x="264" y="87" type="line"/>
      <point x="291" y="85"/>
      <point x="320" y="84"/>
      <point x="354" y="84" type="curve" smooth="yes"/>
      <point x="449" y="84"/>
      <point x="492" y="121"/>
      <point x="526" y="188" type="curve"/>
      <point x="559" y="121"/>
      <point x="602" y="84"/>
      <point x="693" y="84" type="curve" smooth="yes"/>
      <point x="788" y="84"/>
      <point x="832" y="121"/>
      <point x="866" y="188" type="curve"/>
      <point x="900" y="121"/>
      <point x="943" y="84"/>
      <point x="1036" y="84" type="curve" smooth="yes"/>
      <point x="1186" y="84"/>
      <point x="1251" y="141"/>
      <point x="1251" y="287" type="curve" smooth="yes"/>
      <point x="1251" y="327"/>
      <point x="1241" y="383"/>
      <point x="1231" y="428" type="curve"/>
      <point x="1161" y="428" type="line"/>
      <point x="1161" y="288" type="line" smooth="yes"/>
      <point x="1161" y="192"/>
      <point x="1123" y="157"/>
      <point x="1032" y="157" type="curve" smooth="yes"/>
      <point x="948" y="157"/>
      <point x="911" y="189"/>
      <point x="911" y="295" type="curve" smooth="yes"/>
      <point x="911" y="334"/>
      <point x="901" y="386"/>
      <point x="891" y="428" type="curve"/>
      <point x="821" y="428" type="line"/>
      <point x="821" y="288" type="line" smooth="yes"/>
      <point x="821" y="192"/>
      <point x="783" y="157"/>
      <point x="692" y="157" type="curve" smooth="yes"/>
      <point x="608" y="157"/>
      <point x="571" y="192"/>
      <point x="571" y="298" type="curve" smooth="yes"/>
      <point x="571" y="334"/>
      <point x="561" y="388"/>
      <point x="551" y="428" type="curve"/>
      <point x="481" y="428" type="line"/>
      <point x="481" y="293" type="line" smooth="yes"/>
      <point x="481" y="196"/>
      <point x="443" y="157"/>
      <point x="349" y="157" type="curve" smooth="yes"/>
      <point x="200" y="157" type="line"/>
      <point x="200" y="152" type="line"/>
      <point x="163" y="165"/>
      <point x="147" y="194"/>
      <point x="147" y="252" type="curve" smooth="yes"/>
      <point x="147" y="318"/>
      <point x="181" y="360"/>
      <point x="264" y="360" type="curve"/>
      <point x="264" y="438" type="line"/>
      <point x="133" y="438"/>
      <point x="55" y="368"/>
      <point x="55" y="253" type="curve" smooth="yes"/>
      <point x="55" y="179"/>
      <point x="85" y="128"/>
      <point x="160" y="100" type="curve"/>
      <point x="95" y="69"/>
      <point x="55" y="24"/>
      <point x="55" y="-53" type="curve" smooth="yes"/>
      <point x="55" y="-160"/>
      <point x="110" y="-216"/>
    </contour>
  </outline>
</glyph>
<glyph name="u10B04" format="2">
  <advance width="780"/>
  <unicode hex="10B04"/>
  <outline>
    <contour>
      <point x="50" y="-108" type="curve"/>
      <point x="134" y="-108" type="line"/>
      <point x="172" y="-30"/>
      <point x="196" y="59"/>
      <point x="206" y="148" type="curve"/>
      <point x="213" y="41"/>
      <point x="254" y="-47"/>
      <point x="310" y="-108" type="curve"/>
      <point x="398" y="-108" type="line"/>
      <point x="336" y="-33"/>
      <point x="290" y="49"/>
      <point x="290" y="172" type="curve" smooth="yes"/>
      <point x="290" y="309"/>
      <point x="320" y="370"/>
      <point x="384" y="370" type="curve" smooth="yes"/>
      <point x="418" y="370"/>
      <point x="441" y="343"/>
      <point x="441" y="296" type="curve" smooth="yes"/>
      <point x="441" y="233"/>
      <point x="479" y="178"/>
      <point x="584" y="178" type="curve" smooth="yes"/>
      <point x="688" y="178"/>
      <point x="740" y="230"/>
      <point x="740" y="322" type="curve" smooth="yes"/>
      <point x="740" y="350"/>
      <point x="730" y="397"/>
      <point x="720" y="428" type="curve"/>
      <point x="651" y="428" type="line"/>
      <point x="651" y="338" type="line" smooth="yes"/>
      <point x="651" y="280"/>
      <point x="631" y="251"/>
      <point x="584" y="251" type="curve" smooth="yes"/>
      <point x="540" y="251"/>
      <point x="526" y="279"/>
      <point x="526" y="312" type="curve" smooth="yes"/>
      <point x="526" y="387"/>
      <point x="482" y="438"/>
      <point x="384" y="438" type="curve" smooth="yes"/>
      <point x="283" y="438"/>
      <point x="223" y="375"/>
      <point x="206" y="247" type="curve"/>
      <point x="201" y="323"/>
      <point x="173" y="398"/>
      <point x="136" y="428" type="curve"/>
      <point x="51" y="428" type="line"/>
      <point x="103" y="382"/>
      <point x="122" y="295"/>
      <point x="122" y="231" type="curve" smooth="yes"/>
      <point x="122" y="116"/>
      <point x="95" y="-6"/>
    </contour>
  </outline>
</glyph>
<glyph name="u10B05" format="2">
  <advance width="600"/>
  <unicode hex="10B05"/>
  <outline>
    <contour>
      <point x="347" y="-240" type="curve"/>
      <point x="429" y="-240" type="line"/>
      <point x="362" y="-159"/>
      <point x="326" y="-96"/>
      <point x="307" y="0" type="curve"/>
      <point x="620" y="0" type="line"/>
      <point x="620" y="78" type="line"/>
      <point x="296" y="78" type="line"/>
      <point x="292" y="107"/>
      <point x="290" y="155"/>
      <point x="289" y="202" type="curve"/>
      <point x="316" y="168"/>
      <point x="355" y="154"/>
      <point x="408" y="154" type="curve" smooth="yes"/>
      <point x="556" y="154"/>
      <point x="599" y="199"/>
      <point x="599" y="312" type="curve" smooth="yes"/>
      <point x="599" y="343"/>
      <point x="589" y="394"/>
      <point x="579" y="428" type="curve"/>
      <point x="509" y="428" type="line"/>
      <point x="509" y="339" type="line" smooth="yes"/>
      <point x="509" y="259"/>
      <point x="492" y="232"/>
      <point x="405" y="232" type="curve" smooth="yes"/>
      <point x="324" y="232"/>
      <point x="289" y="272"/>
      <point x="289" y="422" type="curve" smooth="yes"/>
      <point x="289" y="428" type="line"/>
      <point x="200" y="428" type="line"/>
      <point x="200" y="274" type="line" smooth="yes"/>
      <point x="200" y="198"/>
      <point x="203" y="134"/>
      <point x="209" y="78" type="curve"/>
      <point x="37" y="78" type="line"/>
      <point x="37" y="-100" type="line"/>
      <point x="126" y="-100" type="line"/>
      <point x="126" y="0" type="line"/>
      <point x="221" y="0" type="line"/>
      <point x="243" y="-110"/>
      <point x="284" y="-180"/>
    </contour>
  </outline>
</glyph>
<glyph name="u10B06" format="2">
  <advance width="314"/>
  <unicode hex="10B06"/>
  <outline>
    <contour>
      <point x="225" y="-240" type="curve"/>
      <point x="254" y="-169" type="line"/>
      <point x="178" y="-151"/>
      <point x="147" y="-121"/>
      <point x="147" y="-52" type="curve" smooth="yes"/>
      <point x="147" y="21"/>
      <point x="181" y="64"/>
      <point x="264" y="64" type="curve"/>
      <point x="264" y="142" type="line"/>
      <point x="181" y="146"/>
      <point x="147" y="168"/>
      <point x="147" y="252" type="curve" smooth="yes"/>
      <point x="147" y="318"/>
      <point x="181" y="360"/>
      <point x="264" y="360" type="curve"/>
      <point x="264" y="438" type="line"/>
      <point x="133" y="438"/>
      <point x="55" y="368"/>
      <point x="55" y="253" type="curve" smooth="yes"/>
      <point x="55" y="179"/>
      <point x="85" y="128"/>
      <point x="160" y="100" type="curve"/>
      <point x="95" y="69"/>
      <point x="55" y="24"/>
      <point x="55" y="-53" type="curve" smooth="yes"/>
      <point x="55" y="-160"/>
      <point x="110" y="-216"/>
    </contour>
  </outline>
</glyph>
<glyph name="u10B07" format="2">
  <advance width="314"/>
  <unicode hex="10B07"/>
  <outline>
    <contour>
      <point x="165" y="-240" type="line"/>
      <point x="254" y="-240" type="line"/>
      <point x="254" y="-81" type="line"/>
      <point x="178" y="-67"/>
      <point x="147" y="-44"/>
      <point x="147" y="9" type="curve" smooth="yes"/>
      <point x="147" y="66"/>
      <point x="181" y="99"/>
      <point x="264" y="99" type="curve"/>
      <point x="264" y="166" type="line"/>
      <point x="181" y="169"/>
      <point x="147" y="189"/>
      <point x="147" y="264" type="curve" smooth="yes"/>
      <point x="147" y="323"/>
      <point x="181" y="360"/>
      <point x="264" y="360" type="curve"/>
      <point x="264" y="438" type="line"/>
      <point x="133" y="438"/>
      <point x="55" y="375"/>
      <point x="55" y="270" type="curve" smooth="yes"/>
      <point x="55" y="203"/>
      <point x="85" y="157"/>
      <point x="160" y="131" type="curve"/>
      <point x="95" y="106"/>
      <point x="55" y="69"/>
      <point x="55" y="6" type="curve" smooth="yes"/>
      <point x="55" y="-62"/>
      <point x="97" y="-104"/>
      <point x="165" y="-130" type="curve"/>
    </contour>
  </outline>
</glyph>
<glyph name="u10B08" format="2">
  <advance width="849"/>
  <unicode hex="10B08"/>
  <outline>
    <contour>
      <point x="548" y="-118" type="curve" smooth="yes"/>
      <point x="703" y="-118"/>
      <point x="779" y="-23"/>
      <point x="779" y="184" type="curve" smooth="yes"/>
      <point x="779" y="283"/>
      <point x="768" y="349"/>
      <point x="747" y="428" type="curve"/>
      <point x="659" y="428" type="line"/>
      <point x="679" y="348"/>
      <point x="690" y="281"/>
      <point x="690" y="188" type="curve" smooth="yes"/>
      <point x="690" y="28"/>
      <point x="643" y="-46"/>
      <point x="548" y="-46" type="curve" smooth="yes"/>
      <point x="453" y="-46"/>
      <point x="406" y="28"/>
      <point x="406" y="188" type="curve" smooth="yes"/>
      <point x="406" y="281"/>
      <point x="417" y="348"/>
      <point x="437" y="428" type="curve"/>
      <point x="349" y="428" type="line"/>
      <point x="346" y="417" type="line" smooth="yes"/>
      <point x="321" y="320"/>
      <point x="306" y="297"/>
      <point x="254" y="297" type="curve" smooth="yes"/>
      <point x="203" y="297"/>
      <point x="174" y="318"/>
      <point x="174" y="385" type="curve" smooth="yes"/>
      <point x="174" y="428" type="line"/>
      <point x="85" y="428" type="line"/>
      <point x="85" y="-108" type="line"/>
      <point x="174" y="-108" type="line"/>
      <point x="174" y="261" type="line"/>
      <point x="192" y="237"/>
      <point x="223" y="224"/>
      <point x="251" y="224" type="curve" smooth="yes"/>
      <point x="277" y="224"/>
      <point x="299" y="231"/>
      <point x="318" y="243" type="curve"/>
      <point x="317" y="225"/>
      <point x="317" y="205"/>
      <point x="317" y="184" type="curve" smooth="yes"/>
      <point x="317" y="-23"/>
      <point x="393" y="-118"/>
    </contour>
  </outline>
</glyph>
<glyph name="u10B09" format="2">
  <advance width="849"/>
  <unicode hex="10B09"/>
  <outline>
    <contour>
      <point x="277" y="-240" type="curve" smooth="yes"/>
      <point x="391" y="-240"/>
      <point x="414" y="-153"/>
      <point x="500" y="-153" type="curve" smooth="yes"/>
      <point x="541" y="-153"/>
      <point x="557" y="-180"/>
      <point x="557" y="-213" type="curve" smooth="yes"/>
      <point x="557" y="-240" type="line"/>
      <point x="625" y="-240" type="line"/>
      <point x="632" y="-223"/>
      <point x="635" y="-202"/>
      <point x="635" y="-196" type="curve" smooth="yes"/>
      <point x="635" y="-131"/>
      <point x="589" y="-80"/>
      <point x="514" y="-80" type="curve" smooth="yes"/>
      <point x="382" y="-80"/>
      <point x="375" y="-167"/>
      <point x="283" y="-167" type="curve" smooth="yes"/>
      <point x="216" y="-167"/>
      <point x="174" y="-92"/>
      <point x="174" y="118" type="curve" smooth="yes"/>
      <point x="174" y="261" type="line"/>
      <point x="192" y="237"/>
      <point x="223" y="224"/>
      <point x="251" y="224" type="curve" smooth="yes"/>
      <point x="277" y="224"/>
      <point x="299" y="231"/>
      <point x="318" y="243" type="curve"/>
      <point x="317" y="227"/>
      <point x="317" y="209"/>
      <point x="317" y="190" type="curve" smooth="yes"/>
      <point x="317" y="46"/>
      <point x="393" y="-28"/>
      <point x="548" y="-28" type="curve" smooth="yes"/>
      <point x="703" y="-28"/>
      <point x="779" y="49"/>
      <point x="779" y="200" type="curve" smooth="yes"/>
      <point x="779" y="292"/>
      <point x="768" y="354"/>
      <point x="747" y="428" type="curve"/>
      <point x="659" y="428" type="line"/>
      <point x="679" y="354"/>
      <point x="690" y="292"/>
      <point x="690" y="206" type="curve" smooth="yes"/>
      <point x="690" y="101"/>
      <point x="643" y="45"/>
      <point x="548" y="45" type="curve" smooth="yes"/>
      <point x="453" y="45"/>
      <point x="406" y="101"/>
      <point x="406" y="206" type="curve" smooth="yes"/>
      <point x="406" y="292"/>
      <point x="417" y="354"/>
      <point x="437" y="428" type="curve"/>
      <point x="349" y="428" type="line"/>
      <point x="346" y="417" type="line" smooth="yes"/>
      <point x="320" y="320"/>
      <point x="306" y="297"/>
      <point x="254" y="297" type="curve" smooth="yes"/>
      <point x="203" y="297"/>
      <point x="174" y="318"/>
      <point x="174" y="385" type="curve" smooth="yes"/>
      <point x="174" y="428" type="line"/>
      <point x="85" y="428" type="line"/>
      <point x="85" y="120" type="line" smooth="yes"/>
      <point x="85" y="-150"/>
      <point x="147" y="-240"/>
    </contour>
  </outline>
</glyph>
<glyph name="u10B0B" format="2">
  <advance width="827"/>
  <unicode hex="10B0B"/>
  <outline>
    <contour>
      <point x="333" y="-240" type="line"/>
      <point x="422" y="-240" type="line"/>
      <point x="422" y="0" type="line"/>
      <point x="631" y="0" type="line" smooth="yes"/>
      <point x="742" y="0"/>
      <point x="782" y="44"/>
      <point x="782" y="94" type="curve" smooth="yes"/>
      <point x="782" y="148"/>
      <point x="760" y="171"/>
      <point x="717" y="194" type="curve" smooth="yes"/>
      <point x="687" y="210"/>
      <point x="640" y="225"/>
      <point x="591" y="238" type="curve" smooth="yes"/>
      <point x="439" y="277"/>
      <point x="429" y="278"/>
      <point x="429" y="331" type="curve" smooth="yes"/>
      <point x="429" y="406"/>
      <point x="353" y="438"/>
      <point x="193" y="438" type="curve" smooth="yes"/>
      <point x="108" y="438"/>
      <point x="27" y="417"/>
      <point x="-25" y="392" type="curve"/>
      <point x="2" y="326" type="line"/>
      <point x="59" y="347"/>
      <point x="126" y="365"/>
      <point x="199" y="365" type="curve" smooth="yes"/>
      <point x="291" y="365"/>
      <point x="345" y="348"/>
      <point x="345" y="303" type="curve" smooth="yes"/>
      <point x="345" y="239"/>
      <point x="370" y="214"/>
      <point x="523" y="176" type="curve" smooth="yes"/>
      <point x="649" y="145"/>
      <point x="693" y="120"/>
      <point x="693" y="97" type="curve" smooth="yes"/>
      <point x="693" y="84"/>
      <point x="678" y="73"/>
      <point x="633" y="73" type="curve" smooth="yes"/>
      <point x="175" y="73" type="line"/>
      <point x="175" y="0" type="line"/>
      <point x="333" y="0" type="line"/>
    </contour>
  </outline>
</glyph>
<glyph name="u10B0C" format="2">
  <advance width="397"/>
  <unicode hex="10B0C"/>
  <outline>
    <contour>
      <point x="102" y="91" type="curve" smooth="yes"/>
      <point x="241" y="91"/>
      <point x="317" y="141"/>
      <point x="317" y="275" type="curve" smooth="yes"/>
      <point x="317" y="316"/>
      <point x="307" y="383"/>
      <point x="297" y="428" type="curve"/>
      <point x="227" y="428" type="line"/>
      <point x="227" y="291" type="line" smooth="yes"/>
      <point x="227" y="197"/>
      <point x="190" y="164"/>
      <point x="100" y="164" type="curve" smooth="yes"/>
      <point x="20" y="164" type="line"/>
      <point x="20" y="101" type="line"/>
      <point x="41" y="95"/>
      <point x="73" y="91"/>
    </contour>
  </outline>
</glyph>
<glyph name="u10B0D" format="2">
  <advance width="493"/>
  <unicode hex="10B0D"/>
  <outline>
    <contour>
      <point x="125" y="-168" type="line"/>
      <point x="214" y="-168" type="line"/>
      <point x="214" y="92" type="line"/>
      <point x="345" y="101"/>
      <point x="413" y="153"/>
      <point x="413" y="275" type="curve" smooth="yes"/>
      <point x="413" y="316"/>
      <point x="403" y="383"/>
      <point x="393" y="428" type="curve"/>
      <point x="323" y="428" type="line"/>
      <point x="323" y="291" type="line" smooth="yes"/>
      <point x="323" y="197"/>
      <point x="278" y="164"/>
      <point x="168" y="164" type="curve" smooth="yes"/>
      <point x="20" y="164" type="line"/>
      <point x="20" y="101" type="line"/>
      <point x="51" y="96"/>
      <point x="79" y="93"/>
      <point x="125" y="91" type="curve"/>
    </contour>
  </outline>
</glyph>
<glyph name="u10B0E" format="2">
  <advance width="271"/>
  <unicode hex="10B0E"/>
  <outline>
    <contour>
      <point x="20" y="-108" type="curve"/>
      <point x="104" y="-108" type="line"/>
      <point x="165" y="2"/>
      <point x="211" y="81"/>
      <point x="211" y="211" type="curve" smooth="yes"/>
      <point x="211" y="295"/>
      <point x="162" y="387"/>
      <point x="110" y="428" type="curve"/>
      <point x="21" y="428" type="line"/>
      <point x="73" y="382"/>
      <point x="122" y="281"/>
      <point x="122" y="211" type="curve" smooth="yes"/>
      <point x="122" y="96"/>
      <point x="80" y="0"/>
    </contour>
  </outline>
</glyph>
<glyph name="u10B0F" format="2">
  <advance width="524"/>
  <unicode hex="10B0F"/>
  <outline>
    <contour>
      <point x="148" y="-89" type="line"/>
      <point x="240" y="-89" type="line"/>
      <point x="240" y="-29" type="line" smooth="yes"/>
      <point x="240" y="25"/>
      <point x="229" y="70"/>
      <point x="207" y="100" type="curve"/>
      <point x="227" y="89"/>
      <point x="254" y="84"/>
      <point x="277" y="84" type="curve" smooth="yes"/>
      <point x="405" y="84"/>
      <point x="469" y="146"/>
      <point x="469" y="250" type="curve" smooth="yes"/>
      <point x="469" y="310"/>
      <point x="445" y="396"/>
      <point x="383" y="467" type="curve"/>
      <point x="311" y="423" type="line"/>
      <point x="365" y="354"/>
      <point x="380" y="291"/>
      <point x="380" y="252" type="curve" smooth="yes"/>
      <point x="380" y="185"/>
      <point x="336" y="157"/>
      <point x="277" y="157" type="curve" smooth="yes"/>
      <point x="200" y="157"/>
      <point x="135" y="210"/>
      <point x="93" y="258" type="curve"/>
      <point x="36" y="197" type="line"/>
      <point x="111" y="128"/>
      <point x="148" y="59"/>
      <point x="148" y="-29" type="curve" smooth="yes"/>
    </contour>
  </outline>
</glyph>
<glyph name="u10B10" format="2">
  <advance width="354"/>
  <unicode hex="10B10"/>
  <outline>
    <contour>
      <point x="43" y="-240" type="curve"/>
      <point x="127" y="-240" type="line"/>
      <point x="230" y="-90"/>
      <point x="299" y="106"/>
      <point x="299" y="252" type="curve" smooth="yes"/>
      <point x="299" y="361"/>
      <point x="261" y="438"/>
      <point x="162" y="438" type="curve" smooth="yes"/>
      <point x="93" y="438"/>
      <point x="36" y="394"/>
      <point x="36" y="319" type="curve" smooth="yes"/>
      <point x="36" y="227"/>
      <point x="94" y="145"/>
      <point x="187" y="76" type="curve"/>
      <point x="165" y="-8"/>
      <point x="107" y="-130"/>
    </contour>
    <contour>
      <point x="206" y="171" type="curve"/>
      <point x="145" y="219"/>
      <point x="125" y="269"/>
      <point x="125" y="321" type="curve" smooth="yes"/>
      <point x="125" y="353"/>
      <point x="142" y="365"/>
      <point x="162" y="365" type="curve" smooth="yes"/>
      <point x="187" y="365"/>
      <point x="210" y="331"/>
      <point x="210" y="231" type="curve" smooth="yes"/>
      <point x="210" y="213"/>
      <point x="207" y="177"/>
    </contour>
  </outline>
</glyph>
<glyph name="u10B11" format="2">
  <advance width="837"/>
  <unicode hex="10B11"/>
  <outline>
    <contour>
      <point x="268" y="-118" type="curve" smooth="yes"/>
      <point x="414" y="-118"/>
      <point x="492" y="-25"/>
      <point x="494" y="178" type="curve"/>
      <point x="521" y="147"/>
      <point x="561" y="127"/>
      <point x="616" y="127" type="curve" smooth="yes"/>
      <point x="720" y="127"/>
      <point x="782" y="182"/>
      <point x="782" y="313" type="curve" smooth="yes"/>
      <point x="782" y="350"/>
      <point x="772" y="391"/>
      <point x="762" y="428" type="curve"/>
      <point x="692" y="428" type="line"/>
      <point x="692" y="340" type="line" smooth="yes"/>
      <point x="692" y="242"/>
      <point x="665" y="205"/>
      <point x="608" y="205" type="curve" smooth="yes"/>
      <point x="523" y="205"/>
      <point x="498" y="264"/>
      <point x="471" y="387" type="curve" smooth="yes"/>
      <point x="462" y="428" type="line"/>
      <point x="374" y="428" type="line"/>
      <point x="394" y="348"/>
      <point x="405" y="281"/>
      <point x="405" y="188" type="curve" smooth="yes"/>
      <point x="405" y="28"/>
      <point x="361" y="-46"/>
      <point x="272" y="-46" type="curve" smooth="yes"/>
      <point x="186" y="-46"/>
      <point x="144" y="13"/>
      <point x="144" y="102" type="curve" smooth="yes"/>
      <point x="144" y="256"/>
      <point x="251" y="333"/>
      <point x="251" y="495" type="curve" smooth="yes"/>
      <point x="251" y="559"/>
      <point x="233" y="622"/>
      <point x="207" y="652" type="curve"/>
      <point x="119" y="652" type="line"/>
      <point x="150" y="625"/>
      <point x="168" y="558"/>
      <point x="168" y="496" type="curve" smooth="yes"/>
      <point x="168" y="353"/>
      <point x="55" y="276"/>
      <point x="55" y="101" type="curve" smooth="yes"/>
      <point x="55" y="-38"/>
      <point x="129" y="-118"/>
    </contour>
  </outline>
</glyph>
<glyph name="u10B12" format="2">
  <advance width="821"/>
  <unicode hex="10B12"/>
  <outline>
    <contour>
      <point x="292" y="-240" type="curve" smooth="yes"/>
      <point x="412" y="-240"/>
      <point x="451" y="-143"/>
      <point x="548" y="-143" type="curve" smooth="yes"/>
      <point x="607" y="-143"/>
      <point x="639" y="-166"/>
      <point x="639" y="-222" type="curve" smooth="yes"/>
      <point x="639" y="-240" type="line"/>
      <point x="707" y="-240" type="line"/>
      <point x="714" y="-219"/>
      <point x="717" y="-204"/>
      <point x="717" y="-197" type="curve" smooth="yes"/>
      <point x="717" y="-119"/>
      <point x="658" y="-70"/>
      <point x="556" y="-70" type="curve" smooth="yes"/>
      <point x="425" y="-70"/>
      <point x="380" y="-167"/>
      <point x="299" y="-167" type="curve" smooth="yes"/>
      <point x="211" y="-167"/>
      <point x="169" y="-111"/>
      <point x="169" y="38" type="curve" smooth="yes"/>
      <point x="169" y="67"/>
      <point x="164" y="114"/>
      <point x="161" y="139" type="curve"/>
      <point x="185" y="103"/>
      <point x="226" y="85"/>
      <point x="280" y="85" type="curve" smooth="yes"/>
      <point x="363" y="85"/>
      <point x="405" y="117"/>
      <point x="430" y="189" type="curve"/>
      <point x="454" y="115"/>
      <point x="495" y="85"/>
      <point x="574" y="85" type="curve" smooth="yes"/>
      <point x="702" y="85"/>
      <point x="756" y="141"/>
      <point x="756" y="287" type="curve" smooth="yes"/>
      <point x="756" y="326"/>
      <point x="746" y="383"/>
      <point x="736" y="428" type="curve"/>
      <point x="666" y="428" type="line"/>
      <point x="666" y="288" type="line" smooth="yes"/>
      <point x="666" y="192"/>
      <point x="638" y="158"/>
      <point x="568" y="158" type="curve" smooth="yes"/>
      <point x="503" y="158"/>
      <point x="475" y="189"/>
      <point x="475" y="295" type="curve" smooth="yes"/>
      <point x="475" y="333"/>
      <point x="465" y="386"/>
      <point x="455" y="428" type="curve"/>
      <point x="385" y="428" type="line"/>
      <point x="385" y="288" type="line" smooth="yes"/>
      <point x="385" y="192"/>
      <point x="353" y="158"/>
      <point x="275" y="158" type="curve" smooth="yes"/>
      <point x="203" y="158"/>
      <point x="178" y="196"/>
      <point x="178" y="252" type="curve" smooth="yes"/>
      <point x="178" y="317"/>
      <point x="202" y="395"/>
      <point x="214" y="428" type="curve"/>
      <point x="130" y="428" type="line"/>
      <point x="102" y="355"/>
      <point x="80" y="236"/>
      <point x="80" y="81" type="curve" smooth="yes"/>
      <point x="80" y="-146"/>
      <point x="138" y="-240"/>
    </contour>
  </outline>
</glyph>
<glyph name="u10B13" format="2">
  <advance width="802"/>
  <unicode hex="10B13"/>
  <outline>
    <contour>
      <point x="85" y="-240" type="line"/>
      <point x="174" y="-240" type="line"/>
      <point x="174" y="38" type="line" smooth="yes"/>
      <point x="174" y="67"/>
      <point x="169" y="114"/>
      <point x="166" y="139" type="curve"/>
      <point x="188" y="103"/>
      <point x="226" y="85"/>
      <point x="274" y="85" type="curve" smooth="yes"/>
      <point x="350" y="85"/>
      <point x="384" y="112"/>
      <point x="411" y="179" type="curve"/>
      <point x="440" y="112"/>
      <point x="476" y="85"/>
      <point x="555" y="85" type="curve" smooth="yes"/>
      <point x="682" y="85"/>
      <point x="737" y="141"/>
      <point x="737" y="286" type="curve" smooth="yes"/>
      <point x="737" y="325"/>
      <point x="727" y="384"/>
      <point x="717" y="428" type="curve"/>
      <point x="647" y="428" type="line"/>
      <point x="647" y="287" type="line" smooth="yes"/>
      <point x="647" y="191"/>
      <point x="618" y="158"/>
      <point x="548" y="158" type="curve" smooth="yes"/>
      <point x="484" y="158"/>
      <point x="456" y="189"/>
      <point x="456" y="294" type="curve" smooth="yes"/>
      <point x="456" y="333"/>
      <point x="446" y="386"/>
      <point x="436" y="428" type="curve"/>
      <point x="366" y="428" type="line"/>
      <point x="366" y="287" type="line" smooth="yes"/>
      <point x="366" y="191"/>
      <point x="337" y="158"/>
      <point x="267" y="158" type="curve" smooth="yes"/>
      <point x="203" y="158"/>
      <point x="175" y="191"/>
      <point x="175" y="297" type="curve" smooth="yes"/>
      <point x="175" y="333"/>
      <point x="165" y="388"/>
      <point x="155" y="428" type="curve"/>
      <point x="85" y="428" type="line"/>
    </contour>
  </outline>
</glyph>
<glyph name="u10B14" format="2">
  <advance width="630"/>
  <unicode hex="10B14"/>
  <outline>
    <contour>
      <point x="160" y="-107" type="curve"/>
      <point x="248" y="-107" type="line"/>
      <point x="186" y="-32"/>
      <point x="144" y="50"/>
      <point x="144" y="173" type="curve" smooth="yes"/>
      <point x="144" y="309"/>
      <point x="174" y="370"/>
      <point x="238" y="370" type="curve" smooth="yes"/>
      <point x="272" y="370"/>
      <point x="295" y="343"/>
      <point x="295" y="296" type="curve" smooth="yes"/>
      <point x="295" y="233"/>
      <point x="333" y="179"/>
      <point x="438" y="179" type="curve" smooth="yes"/>
      <point x="542" y="179"/>
      <point x="594" y="230"/>
      <point x="594" y="322" type="curve" smooth="yes"/>
      <point x="594" y="350"/>
      <point x="584" y="397"/>
      <point x="574" y="428" type="curve"/>
      <point x="505" y="428" type="line"/>
      <point x="505" y="338" type="line" smooth="yes"/>
      <point x="505" y="280"/>
      <point x="485" y="252"/>
      <point x="438" y="252" type="curve" smooth="yes"/>
      <point x="394" y="252"/>
      <point x="380" y="279"/>
      <point x="380" y="312" type="curve" smooth="yes"/>
      <point x="380" y="387"/>
      <point x="336" y="438"/>
      <point x="238" y="438" type="curve" smooth="yes"/>
      <point x="117" y="438"/>
      <point x="55" y="362"/>
      <point x="55" y="173" type="curve" smooth="yes"/>
      <point x="55" y="48"/>
      <point x="99" y="-40"/>
    </contour>
  </outline>
</glyph>
<glyph name="u10B15" format="2">
  <advance width="629"/>
  <unicode hex="10B15"/>
  <outline>
    <contour>
      <point x="29" y="-108" type="line"/>
      <point x="304" y="-108" type="line" smooth="yes"/>
      <point x="467" y="-108"/>
      <point x="549" y="-43"/>
      <point x="549" y="173" type="curve" smooth="yes"/>
      <point x="549" y="254"/>
      <point x="540" y="365"/>
      <point x="530" y="428" type="curve"/>
      <point x="460" y="428" type="line"/>
      <point x="460" y="155" type="line" smooth="yes"/>
      <point x="460" y="31"/>
      <point x="422" y="-40"/>
      <point x="304" y="-40" type="curve" smooth="yes"/>
      <point x="152" y="-40" type="line"/>
      <point x="196" y="14"/>
      <point x="221" y="80"/>
      <point x="221" y="187" type="curve" smooth="yes"/>
      <point x="221" y="360"/>
      <point x="160" y="438"/>
      <point x="75" y="438" type="curve" smooth="yes"/>
      <point x="47" y="438"/>
      <point x="30" y="434"/>
      <point x="10" y="425" type="curve"/>
      <point x="29" y="355" type="line"/>
      <point x="41" y="361"/>
      <point x="53" y="363"/>
      <point x="65" y="363" type="curve" smooth="yes"/>
      <point x="99" y="363"/>
      <point x="132" y="295"/>
      <point x="132" y="178" type="curve" smooth="yes"/>
      <point x="132" y="74"/>
      <point x="106" y="8"/>
      <point x="60" y="-40" type="curve"/>
      <point x="29" y="-40" type="line"/>
    </contour>
  </outline>
</glyph>
<glyph name="u10B16" format="2">
  <advance width="548"/>
  <unicode hex="10B16"/>
  <outline>
    <contour>
      <point x="431" y="-240" type="curve"/>
      <point x="519" y="-240" type="line"/>
      <point x="522" y="-212"/>
      <point x="524" y="-181"/>
      <point x="524" y="-153" type="curve" smooth="yes"/>
      <point x="524" y="-34"/>
      <point x="480" y="47"/>
      <point x="395" y="47" type="curve" smooth="yes"/>
      <point x="280" y="47"/>
      <point x="275" y="-82"/>
      <point x="226" y="-82" type="curve" smooth="yes"/>
      <point x="210" y="-82"/>
      <point x="200" y="-69"/>
      <point x="200" y="-35" type="curve" smooth="yes"/>
      <point x="200" y="43"/>
      <point x="275" y="138"/>
      <point x="275" y="252" type="curve" smooth="yes"/>
      <point x="275" y="361"/>
      <point x="235" y="438"/>
      <point x="136" y="438" type="curve" smooth="yes"/>
      <point x="67" y="438"/>
      <point x="10" y="394"/>
      <point x="10" y="319" type="curve" smooth="yes"/>
      <point x="10" y="227"/>
      <point x="55" y="158"/>
      <point x="148" y="89" type="curve"/>
      <point x="134" y="48"/>
      <point x="116" y="14"/>
      <point x="116" y="-47" type="curve" smooth="yes"/>
      <point x="116" y="-103"/>
      <point x="149" y="-156"/>
      <point x="217" y="-156" type="curve" smooth="yes"/>
      <point x="337" y="-156"/>
      <point x="337" y="-31"/>
      <point x="385" y="-31" type="curve" smooth="yes"/>
      <point x="414" y="-31"/>
      <point x="435" y="-67"/>
      <point x="435" y="-162" type="curve" smooth="yes"/>
      <point x="435" y="-184"/>
      <point x="433" y="-213"/>
    </contour>
    <contour>
      <point x="178" y="175" type="curve"/>
      <point x="117" y="222"/>
      <point x="99" y="269"/>
      <point x="99" y="321" type="curve" smooth="yes"/>
      <point x="99" y="353"/>
      <point x="116" y="365"/>
      <point x="136" y="365" type="curve" smooth="yes"/>
      <point x="161" y="365"/>
      <point x="188" y="331"/>
      <point x="188" y="231" type="curve" smooth="yes"/>
      <point x="188" y="213"/>
      <point x="179" y="181"/>
    </contour>
  </outline>
</glyph>
<glyph name="u10B17" format="2">
  <advance width="568"/>
  <unicode hex="10B17"/>
  <outline>
    <contour>
      <point x="85" y="-138" type="line"/>
      <point x="174" y="-138" type="line"/>
      <point x="174" y="127" type="line"/>
      <point x="202" y="98"/>
      <point x="240" y="84"/>
      <point x="292" y="84" type="curve" smooth="yes"/>
      <point x="428" y="84"/>
      <point x="503" y="133"/>
      <point x="503" y="271" type="curve" smooth="yes"/>
      <point x="503" y="313"/>
      <point x="493" y="382"/>
      <point x="483" y="428" type="curve"/>
      <point x="413" y="428" type="line"/>
      <point x="413" y="285" type="line" smooth="yes"/>
      <point x="413" y="189"/>
      <point x="376" y="157"/>
      <point x="285" y="157" type="curve" smooth="yes"/>
      <point x="187" y="157"/>
      <point x="174" y="185"/>
      <point x="174" y="282" type="curve" smooth="yes"/>
      <point x="174" y="428" type="line"/>
      <point x="85" y="428" type="line"/>
    </contour>
  </outline>
</glyph>
<glyph name="u10B18" format="2">
  <advance width="685"/>
  <unicode hex="10B18"/>
  <outline>
    <contour>
      <point x="287" y="-240" type="curve" smooth="yes"/>
      <point x="386" y="-240"/>
      <point x="438" y="-172"/>
      <point x="449" y="-100" type="curve" smooth="yes"/>
      <point x="459" y="-36"/>
      <point x="477" y="-5"/>
      <point x="528" y="-5" type="curve" smooth="yes"/>
      <point x="583" y="-5"/>
      <point x="607" y="-40"/>
      <point x="607" y="-98" type="curve" smooth="yes"/>
      <point x="607" y="-199" type="line"/>
      <point x="675" y="-199" type="line"/>
      <point x="685" y="-168"/>
      <point x="695" y="-131"/>
      <point x="695" y="-103" type="curve" smooth="yes"/>
      <point x="695" y="5"/>
      <point x="633" y="68"/>
      <point x="528" y="68" type="curve" smooth="yes"/>
      <point x="427" y="68"/>
      <point x="375" y="0"/>
      <point x="364" y="-76" type="curve" smooth="yes"/>
      <point x="355" y="-137"/>
      <point x="327" y="-167"/>
      <point x="283" y="-167" type="curve" smooth="yes"/>
      <point x="197" y="-167"/>
      <point x="144" y="-85"/>
      <point x="144" y="99" type="curve" smooth="yes"/>
      <point x="144" y="165"/>
      <point x="145" y="208"/>
      <point x="150" y="253" type="curve"/>
      <point x="164" y="180"/>
      <point x="208" y="128"/>
      <point x="313" y="128" type="curve" smooth="yes"/>
      <point x="448" y="128"/>
      <point x="505" y="185"/>
      <point x="505" y="309" type="curve" smooth="yes"/>
      <point x="505" y="334"/>
      <point x="495" y="391"/>
      <point x="485" y="428" type="curve"/>
      <point x="415" y="428" type="line"/>
      <point x="415" y="321" type="line" smooth="yes"/>
      <point x="415" y="237"/>
      <point x="393" y="201"/>
      <point x="308" y="201" type="curve" smooth="yes"/>
      <point x="225" y="201"/>
      <point x="189" y="246"/>
      <point x="189" y="406" type="curve" smooth="yes"/>
      <point x="189" y="428" type="line"/>
      <point x="105" y="428" type="line"/>
      <point x="83" y="347"/>
      <point x="55" y="242"/>
      <point x="55" y="89" type="curve" smooth="yes"/>
      <point x="55" y="-138"/>
      <point x="132" y="-240"/>
    </contour>
  </outline>
</glyph>
<glyph name="u10B19" format="2">
  <advance width="771"/>
  <unicode hex="10B19"/>
  <outline>
    <contour>
      <point x="50" y="0" type="curve"/>
      <point x="134" y="0" type="line"/>
      <point x="185" y="65"/>
      <point x="211" y="130"/>
      <point x="211" y="212" type="curve" smooth="yes"/>
      <point x="211" y="225"/>
      <point x="210" y="236"/>
      <point x="207" y="254" type="curve"/>
      <point x="277" y="196"/>
      <point x="391" y="152"/>
      <point x="504" y="152" type="curve" smooth="yes"/>
      <point x="622" y="152"/>
      <point x="726" y="203"/>
      <point x="726" y="297" type="curve" smooth="yes"/>
      <point x="726" y="384"/>
      <point x="643" y="438"/>
      <point x="526" y="438" type="curve" smooth="yes"/>
      <point x="418" y="438"/>
      <point x="326" y="385"/>
      <point x="279" y="291" type="curve"/>
      <point x="217" y="327"/>
      <point x="168" y="377"/>
      <point x="144" y="428" type="curve"/>
      <point x="51" y="428" type="line"/>
      <point x="96" y="366"/>
      <point x="122" y="305"/>
      <point x="122" y="212" type="curve" smooth="yes"/>
      <point x="122" y="140"/>
      <point x="95" y="64"/>
    </contour>
    <contour>
      <point x="503" y="225" type="curve" smooth="yes"/>
      <point x="451" y="225"/>
      <point x="400" y="236"/>
      <point x="353" y="254" type="curve"/>
      <point x="379" y="324"/>
      <point x="443" y="365"/>
      <point x="522" y="365" type="curve" smooth="yes"/>
      <point x="604" y="365"/>
      <point x="637" y="334"/>
      <point x="637" y="297" type="curve" smooth="yes"/>
      <point x="637" y="256"/>
      <point x="584" y="225"/>
    </contour>
  </outline>
</glyph>
<glyph name="u10B1A" format="2">
  <advance width="616"/>
  <unicode hex="10B1A"/>
  <outline>
    <contour>
      <point x="293" y="-117" type="curve" smooth="yes"/>
      <point x="459" y="-117"/>
      <point x="546" y="-22"/>
      <point x="546" y="158" type="curve" smooth="yes"/>
      <point x="546" y="283"/>
      <point x="514" y="369"/>
      <point x="484" y="428" type="curve"/>
      <point x="396" y="428" type="line"/>
      <point x="429" y="350"/>
      <point x="457" y="273"/>
      <point x="457" y="154" type="curve" smooth="yes"/>
      <point x="457" y="21"/>
      <point x="404" y="-45"/>
      <point x="298" y="-45" type="curve" smooth="yes"/>
      <point x="194" y="-45"/>
      <point x="144" y="14"/>
      <point x="144" y="103" type="curve" smooth="yes"/>
      <point x="144" y="256"/>
      <point x="315" y="333"/>
      <point x="315" y="495" type="curve" smooth="yes"/>
      <point x="315" y="558"/>
      <point x="293" y="610"/>
      <point x="256" y="652" type="curve"/>
      <point x="163" y="652" type="line"/>
      <point x="204" y="617"/>
      <point x="232" y="555"/>
      <point x="232" y="496" type="curve" smooth="yes"/>
      <point x="232" y="353"/>
      <point x="55" y="276"/>
      <point x="55" y="102" type="curve" smooth="yes"/>
      <point x="55" y="-37"/>
      <point x="138" y="-117"/>
    </contour>
  </outline>
</glyph>
<glyph name="u10B1B" format="2">
  <advance width="426"/>
  <unicode hex="10B1B"/>
  <outline>
    <contour>
      <point x="-400" y="-240" type="line"/>
      <point x="49" y="-240" type="line" smooth="yes"/>
      <point x="316" y="-240"/>
      <point x="351" y="-93"/>
      <point x="351" y="14" type="curve" smooth="yes"/>
      <point x="351" y="332"/>
      <point x="279" y="440"/>
      <point x="190" y="440" type="curve" smooth="yes"/>
      <point x="102" y="440"/>
      <point x="55" y="326"/>
      <point x="55" y="236" type="curve" smooth="yes"/>
      <point x="55" y="135"/>
      <point x="115" y="89"/>
      <point x="262" y="84" type="curve"/>
      <point x="262" y="7" type="line" smooth="yes"/>
      <point x="262" y="-64"/>
      <point x="257" y="-167"/>
      <point x="33" y="-167" type="curve" smooth="yes"/>
      <point x="-400" y="-167" type="line"/>
    </contour>
    <contour>
      <point x="259" y="157" type="curve"/>
      <point x="166" y="164"/>
      <point x="144" y="200"/>
      <point x="144" y="240" type="curve" smooth="yes"/>
      <point x="144" y="306"/>
      <point x="167" y="367"/>
      <point x="190" y="367" type="curve" smooth="yes"/>
      <point x="219" y="367"/>
      <point x="246" y="293"/>
    </contour>
  </outline>
</glyph>
<glyph name="u10B1C" format="2">
  <advance width="517"/>
  <unicode hex="10B1C"/>
  <outline>
    <contour>
      <point x="393" y="-59" type="curve"/>
      <point x="479" y="-59" type="line"/>
      <point x="486" y="-29"/>
      <point x="493" y="34"/>
      <point x="493" y="87" type="curve" smooth="yes"/>
      <point x="493" y="206"/>
      <point x="449" y="287"/>
      <point x="364" y="287" type="curve" smooth="yes"/>
      <point x="249" y="287"/>
      <point x="244" y="158"/>
      <point x="195" y="158" type="curve" smooth="yes"/>
      <point x="179" y="158"/>
      <point x="169" y="191"/>
      <point x="169" y="329" type="curve" smooth="yes"/>
      <point x="169" y="543"/>
      <point x="204" y="687"/>
      <point x="299" y="687" type="curve" smooth="yes"/>
      <point x="325" y="687"/>
      <point x="345" y="683"/>
      <point x="365" y="677" type="curve"/>
      <point x="365" y="748" type="line"/>
      <point x="347" y="755"/>
      <point x="322" y="760"/>
      <point x="288" y="760" type="curve" smooth="yes"/>
      <point x="170" y="760"/>
      <point x="80" y="661"/>
      <point x="80" y="326" type="curve" smooth="yes"/>
      <point x="80" y="137"/>
      <point x="118" y="84"/>
      <point x="186" y="84" type="curve" smooth="yes"/>
      <point x="306" y="84"/>
      <point x="306" y="209"/>
      <point x="354" y="209" type="curve" smooth="yes"/>
      <point x="383" y="209"/>
      <point x="404" y="173"/>
      <point x="404" y="78" type="curve" smooth="yes"/>
      <point x="404" y="39"/>
      <point x="400" y="-20"/>
    </contour>
  </outline>
</glyph>
<glyph name="u10B1D" format="2">
  <advance width="821"/>
  <unicode hex="10B1D"/>
  <outline>
    <contour>
      <point x="677" y="-240" type="curve"/>
      <point x="763" y="-240" type="line"/>
      <point x="780" y="-214"/>
      <point x="797" y="-165"/>
      <point x="797" y="-126" type="curve" smooth="yes"/>
      <point x="797" y="-28"/>
      <point x="733" y="28"/>
      <point x="613" y="28" type="curve" smooth="yes"/>
      <point x="474" y="28"/>
      <point x="412" y="-99"/>
      <point x="308" y="-99" type="curve" smooth="yes"/>
      <point x="244" y="-99"/>
      <point x="192" y="-66"/>
      <point x="192" y="44" type="curve" smooth="yes"/>
      <point x="192" y="86"/>
      <point x="210" y="168"/>
      <point x="210" y="212" type="curve" smooth="yes"/>
      <point x="210" y="225"/>
      <point x="209" y="236"/>
      <point x="206" y="254" type="curve"/>
      <point x="276" y="196"/>
      <point x="390" y="152"/>
      <point x="503" y="152" type="curve" smooth="yes"/>
      <point x="621" y="152"/>
      <point x="725" y="202"/>
      <point x="725" y="296" type="curve" smooth="yes"/>
      <point x="725" y="384"/>
      <point x="642" y="438"/>
      <point x="525" y="438" type="curve" smooth="yes"/>
      <point x="412" y="438"/>
      <point x="312" y="359"/>
      <point x="278" y="290" type="curve"/>
      <point x="216" y="327"/>
      <point x="167" y="377"/>
      <point x="143" y="428" type="curve"/>
      <point x="50" y="428" type="line"/>
      <point x="95" y="366"/>
      <point x="121" y="304"/>
      <point x="121" y="212" type="curve" smooth="yes"/>
      <point x="121" y="176"/>
      <point x="103" y="82"/>
      <point x="103" y="52" type="curve" smooth="yes"/>
      <point x="103" y="-122"/>
      <point x="180" y="-177"/>
      <point x="305" y="-177" type="curve" smooth="yes"/>
      <point x="449" y="-177"/>
      <point x="498" y="-50"/>
      <point x="605" y="-50" type="curve" smooth="yes"/>
      <point x="674" y="-50"/>
      <point x="708" y="-79"/>
      <point x="708" y="-137" type="curve" smooth="yes"/>
      <point x="708" y="-177"/>
      <point x="695" y="-207"/>
    </contour>
    <contour>
      <point x="502" y="225" type="curve" smooth="yes"/>
      <point x="450" y="225"/>
      <point x="399" y="236"/>
      <point x="352" y="254" type="curve"/>
      <point x="370" y="303"/>
      <point x="439" y="365"/>
      <point x="521" y="365" type="curve" smooth="yes"/>
      <point x="603" y="365"/>
      <point x="636" y="334"/>
      <point x="636" y="296" type="curve" smooth="yes"/>
      <point x="636" y="255"/>
      <point x="583" y="225"/>
    </contour>
  </outline>
</glyph>
<glyph name="u10B1E" format="2">
  <advance width="651"/>
  <unicode hex="10B1E"/>
  <outline>
    <contour>
      <point x="297" y="-118" type="curve" smooth="yes"/>
      <point x="484" y="-118"/>
      <point x="576" y="-22"/>
      <point x="576" y="185" type="curve" smooth="yes"/>
      <point x="576" y="428" type="line"/>
      <point x="487" y="428" type="line"/>
      <point x="487" y="189" type="line" smooth="yes"/>
      <point x="487" y="29"/>
      <point x="424" y="-46"/>
      <point x="297" y="-46" type="curve" smooth="yes"/>
      <point x="214" y="-46"/>
      <point x="178" y="26"/>
      <point x="163" y="94" type="curve"/>
      <point x="209" y="94" type="line" smooth="yes"/>
      <point x="322" y="94"/>
      <point x="346" y="147"/>
      <point x="346" y="209" type="curve" smooth="yes"/>
      <point x="346" y="359"/>
      <point x="286" y="438"/>
      <point x="205" y="438" type="curve" smooth="yes"/>
      <point x="131" y="438"/>
      <point x="65" y="349"/>
      <point x="65" y="206" type="curve" smooth="yes"/>
      <point x="65" y="-1"/>
      <point x="142" y="-118"/>
    </contour>
    <contour>
      <point x="155" y="162" type="line"/>
      <point x="154" y="175"/>
      <point x="154" y="188"/>
      <point x="154" y="200" type="curve" smooth="yes"/>
      <point x="154" y="298"/>
      <point x="171" y="365"/>
      <point x="206" y="365" type="curve" smooth="yes"/>
      <point x="239" y="365"/>
      <point x="257" y="308"/>
      <point x="257" y="211" type="curve" smooth="yes"/>
      <point x="257" y="180"/>
      <point x="241" y="162"/>
      <point x="199" y="162" type="curve" smooth="yes"/>
    </contour>
  </outline>
</glyph>
<glyph name="u10B1F" format="2">
  <advance width="651"/>
  <unicode hex="10B1F"/>
  <outline>
    <contour>
      <point x="297" y="-118" type="curve" smooth="yes"/>
      <point x="476" y="-118"/>
      <point x="576" y="-18"/>
      <point x="576" y="233" type="curve" smooth="yes"/>
      <point x="576" y="648"/>
      <point x="519" y="760"/>
      <point x="368" y="760" type="curve" smooth="yes"/>
      <point x="334" y="760"/>
      <point x="309" y="755"/>
      <point x="291" y="748" type="curve"/>
      <point x="291" y="677" type="line"/>
      <point x="311" y="683"/>
      <point x="331" y="687"/>
      <point x="357" y="687" type="curve" smooth="yes"/>
      <point x="452" y="687"/>
      <point x="487" y="584"/>
      <point x="487" y="233" type="curve" smooth="yes"/>
      <point x="487" y="36"/>
      <point x="424" y="-45"/>
      <point x="297" y="-45" type="curve" smooth="yes"/>
      <point x="214" y="-45"/>
      <point x="178" y="26"/>
      <point x="163" y="94" type="curve"/>
      <point x="209" y="94" type="line" smooth="yes"/>
      <point x="322" y="94"/>
      <point x="346" y="147"/>
      <point x="346" y="209" type="curve" smooth="yes"/>
      <point x="346" y="359"/>
      <point x="286" y="438"/>
      <point x="205" y="438" type="curve" smooth="yes"/>
      <point x="131" y="438"/>
      <point x="65" y="349"/>
      <point x="65" y="206" type="curve" smooth="yes"/>
      <point x="65" y="-1"/>
      <point x="142" y="-118"/>
    </contour>
    <contour>
      <point x="155" y="162" type="line"/>
      <point x="154" y="175"/>
      <point x="154" y="188"/>
      <point x="154" y="200" type="curve" smooth="yes"/>
      <point x="154" y="298"/>
      <point x="171" y="365"/>
      <point x="206" y="365" type="curve" smooth="yes"/>
      <point x="239" y="365"/>
      <point x="257" y="308"/>
      <point x="257" y="211" type="curve" smooth="yes"/>
      <point x="257" y="180"/>
      <point x="241" y="162"/>
      <point x="199" y="162" type="curve" smooth="yes"/>
    </contour>
  </outline>
</glyph>
<glyph name="u10B20" format="2">
  <advance width="280"/>
  <unicode hex="10B20"/>
  <outline>
    <contour>
      <point x="-740" y="-240" type="line"/>
      <point x="-84" y="-240" type="line" smooth="yes"/>
      <point x="121" y="-240"/>
      <point x="220" y="-160"/>
      <point x="220" y="-15" type="curve" smooth="yes"/>
      <point x="220" y="80"/>
      <point x="181" y="143"/>
      <point x="181" y="260" type="curve" smooth="yes"/>
      <point x="181" y="328"/>
      <point x="189" y="362"/>
      <point x="210" y="428" type="curve"/>
      <point x="125" y="428" type="line"/>
      <point x="104" y="366"/>
      <point x="92" y="319"/>
      <point x="92" y="263" type="curve" smooth="yes"/>
      <point x="92" y="136"/>
      <point x="128" y="67"/>
      <point x="128" y="-6" type="curve" smooth="yes"/>
      <point x="128" y="-115"/>
      <point x="56" y="-167"/>
      <point x="-100" y="-167" type="curve" smooth="yes"/>
      <point x="-740" y="-167" type="line"/>
    </contour>
  </outline>
</glyph>
<glyph name="u10B21" format="2">
  <advance width="915"/>
  <unicode hex="10B21"/>
  <outline>
    <contour>
      <point x="285" y="-118" type="curve" smooth="yes"/>
      <point x="375" y="-118"/>
      <point x="425" y="-91"/>
      <point x="472" y="-14" type="curve"/>
      <point x="508" y="-82"/>
      <point x="551" y="-118"/>
      <point x="634" y="-118" type="curve" smooth="yes"/>
      <point x="776" y="-118"/>
      <point x="850" y="-32"/>
      <point x="850" y="97" type="curve" smooth="yes"/>
      <point x="850" y="194"/>
      <point x="815" y="243"/>
      <point x="815" y="308" type="curve" smooth="yes"/>
      <point x="815" y="419"/>
      <point x="876" y="487"/>
      <point x="1011" y="487" type="curve"/>
      <point x="962" y="552" type="line"/>
      <point x="802" y="541"/>
      <point x="726" y="439"/>
      <point x="726" y="306" type="curve" smooth="yes"/>
      <point x="726" y="235"/>
      <point x="761" y="179"/>
      <point x="761" y="99" type="curve" smooth="yes"/>
      <point x="761" y="16"/>
      <point x="722" y="-45"/>
      <point x="640" y="-45" type="curve" smooth="yes"/>
      <point x="560" y="-45"/>
      <point x="526" y="24"/>
      <point x="526" y="138" type="curve" smooth="yes"/>
      <point x="526" y="428" type="line"/>
      <point x="437" y="428" type="line"/>
      <point x="437" y="188" type="line" smooth="yes"/>
      <point x="437" y="28"/>
      <point x="397" y="-46"/>
      <point x="289" y="-46" type="curve" smooth="yes"/>
      <point x="205" y="-46"/>
      <point x="173" y="25"/>
      <point x="161" y="94" type="curve"/>
      <point x="209" y="94" type="line" smooth="yes"/>
      <point x="322" y="94"/>
      <point x="346" y="147"/>
      <point x="346" y="209" type="curve" smooth="yes"/>
      <point x="346" y="359"/>
      <point x="286" y="438"/>
      <point x="205" y="438" type="curve" smooth="yes"/>
      <point x="131" y="438"/>
      <point x="65" y="349"/>
      <point x="65" y="206" type="curve" smooth="yes"/>
      <point x="65" y="-1"/>
      <point x="130" y="-118"/>
    </contour>
    <contour>
      <point x="154" y="162" type="line"/>
      <point x="154" y="200" type="line" smooth="yes"/>
      <point x="154" y="298"/>
      <point x="171" y="365"/>
      <point x="206" y="365" type="curve" smooth="yes"/>
      <point x="239" y="365"/>
      <point x="257" y="308"/>
      <point x="257" y="211" type="curve" smooth="yes"/>
      <point x="257" y="180"/>
      <point x="241" y="162"/>
      <point x="199" y="162" type="curve" smooth="yes"/>
    </contour>
  </outline>
</glyph>
<glyph name="u10B22" format="2">
  <advance width="314"/>
  <unicode hex="10B22"/>
  <outline>
    <contour>
      <point x="89" y="-240" type="line"/>
      <point x="204" y="-216"/>
      <point x="259" y="-160"/>
      <point x="259" y="-53" type="curve" smooth="yes"/>
      <point x="259" y="24"/>
      <point x="219" y="69"/>
      <point x="154" y="100" type="curve"/>
      <point x="229" y="128"/>
      <point x="259" y="179"/>
      <point x="259" y="253" type="curve" smooth="yes"/>
      <point x="259" y="368"/>
      <point x="181" y="438"/>
      <point x="50" y="438" type="curve"/>
      <point x="50" y="360" type="line"/>
      <point x="133" y="360"/>
      <point x="167" y="318"/>
      <point x="167" y="252" type="curve" smooth="yes"/>
      <point x="167" y="168"/>
      <point x="133" y="146"/>
      <point x="50" y="142" type="curve"/>
      <point x="50" y="64" type="line"/>
      <point x="133" y="64"/>
      <point x="167" y="21"/>
      <point x="167" y="-52" type="curve" smooth="yes"/>
      <point x="167" y="-121"/>
      <point x="136" y="-151"/>
      <point x="60" y="-169" type="curve"/>
    </contour>
  </outline>
</glyph>
<glyph name="u10B23" format="2">
  <advance width="728"/>
  <unicode hex="10B23"/>
  <outline>
    <contour>
      <point x="423" y="-118" type="curve" smooth="yes"/>
      <point x="581" y="-118"/>
      <point x="663" y="-32"/>
      <point x="663" y="112" type="curve" smooth="yes"/>
      <point x="663" y="194"/>
      <point x="628" y="242"/>
      <point x="628" y="307" type="curve" smooth="yes"/>
      <point x="628" y="343"/>
      <point x="643" y="397"/>
      <point x="663" y="428" type="curve"/>
      <point x="574" y="428" type="line"/>
      <point x="553" y="392"/>
      <point x="539" y="347"/>
      <point x="539" y="305" type="curve" smooth="yes"/>
      <point x="539" y="234"/>
      <point x="574" y="188"/>
      <point x="574" y="113" type="curve" smooth="yes"/>
      <point x="574" y="16"/>
      <point x="528" y="-45"/>
      <point x="430" y="-45" type="curve" smooth="yes"/>
      <point x="335" y="-45"/>
      <point x="294" y="24"/>
      <point x="294" y="138" type="curve" smooth="yes"/>
      <point x="294" y="428" type="line"/>
      <point x="206" y="428" type="line"/>
      <point x="206" y="377" type="line" smooth="yes"/>
      <point x="206" y="263"/>
      <point x="174" y="217"/>
      <point x="95" y="217" type="curve" smooth="yes"/>
      <point x="10" y="217" type="line"/>
      <point x="10" y="154" type="line"/>
      <point x="35" y="148"/>
      <point x="62" y="144"/>
      <point x="97" y="144" type="curve" smooth="yes"/>
      <point x="144" y="144"/>
      <point x="180" y="159"/>
      <point x="206" y="184" type="curve"/>
      <point x="206" y="135" type="line" smooth="yes"/>
      <point x="206" y="-8"/>
      <point x="254" y="-118"/>
    </contour>
  </outline>
</glyph>
<glyph name="u10B24" format="2">
  <advance width="314"/>
  <unicode hex="10B24"/>
  <outline>
    <contour>
      <point x="60" y="-240" type="line"/>
      <point x="149" y="-240" type="line"/>
      <point x="149" y="-130" type="line"/>
      <point x="217" y="-104"/>
      <point x="259" y="-62"/>
      <point x="259" y="6" type="curve" smooth="yes"/>
      <point x="259" y="69"/>
      <point x="219" y="106"/>
      <point x="154" y="131" type="curve"/>
      <point x="229" y="157"/>
      <point x="259" y="203"/>
      <point x="259" y="270" type="curve" smooth="yes"/>
      <point x="259" y="375"/>
      <point x="181" y="438"/>
      <point x="50" y="438" type="curve"/>
      <point x="50" y="360" type="line"/>
      <point x="133" y="360"/>
      <point x="167" y="323"/>
      <point x="167" y="264" type="curve" smooth="yes"/>
      <point x="167" y="189"/>
      <point x="133" y="169"/>
      <point x="50" y="166" type="curve"/>
      <point x="50" y="99" type="line"/>
      <point x="133" y="99"/>
      <point x="167" y="66"/>
      <point x="167" y="9" type="curve" smooth="yes"/>
      <point x="167" y="-44"/>
      <point x="136" y="-67"/>
      <point x="60" y="-81" type="curve"/>
    </contour>
  </outline>
</glyph>
<glyph name="u10B25" format="2">
  <advance width="259"/>
  <unicode hex="10B25"/>
  <outline>
    <contour>
      <point x="85" y="-108" type="line"/>
      <point x="174" y="-108" type="line"/>
      <point x="174" y="428" type="line"/>
      <point x="85" y="428" type="line"/>
    </contour>
  </outline>
</glyph>
<glyph name="u10B26" format="2">
  <advance width="269"/>
  <unicode hex="10B26"/>
  <outline>
    <contour>
      <point x="237" y="-240" type="curve"/>
      <point x="319" y="-240" type="line"/>
      <point x="205" y="-102"/>
      <point x="179" y="-16"/>
      <point x="179" y="275" type="curve" smooth="yes"/>
      <point x="179" y="535"/>
      <point x="135" y="656"/>
      <point x="33" y="760" type="curve"/>
      <point x="-50" y="760" type="line"/>
      <point x="69" y="620"/>
      <point x="90" y="540"/>
      <point x="90" y="274" type="curve" smooth="yes"/>
      <point x="90" y="-15"/>
      <point x="133" y="-141"/>
    </contour>
  </outline>
</glyph>
<glyph name="u10B27" format="2">
  <advance width="956"/>
  <unicode hex="10B27"/>
  <outline>
    <contour>
      <point x="347" y="-240" type="curve"/>
      <point x="429" y="-240" type="line"/>
      <point x="380" y="-180"/>
      <point x="331" y="-107"/>
      <point x="306" y="0" type="curve"/>
      <point x="628" y="0" type="line"/>
      <point x="628" y="78" type="line"/>
      <point x="297" y="78" type="line"/>
      <point x="292" y="118"/>
      <point x="289" y="162"/>
      <point x="289" y="212" type="curve"/>
      <point x="317" y="192"/>
      <point x="358" y="179"/>
      <point x="411" y="179" type="curve" smooth="yes"/>
      <point x="500" y="179"/>
      <point x="526" y="200"/>
      <point x="552" y="238" type="curve"/>
      <point x="583" y="199"/>
      <point x="640" y="179"/>
      <point x="704" y="179" type="curve" smooth="yes"/>
      <point x="863" y="179"/>
      <point x="894" y="237"/>
      <point x="894" y="322" type="curve" smooth="yes"/>
      <point x="894" y="350"/>
      <point x="884" y="397"/>
      <point x="874" y="428" type="curve"/>
      <point x="804" y="428" type="line"/>
      <point x="804" y="338" type="line" smooth="yes"/>
      <point x="804" y="277"/>
      <point x="787" y="257"/>
      <point x="701" y="257" type="curve" smooth="yes"/>
      <point x="644" y="257"/>
      <point x="595" y="274"/>
      <point x="595" y="331" type="curve" smooth="yes"/>
      <point x="595" y="359"/>
      <point x="587" y="402"/>
      <point x="575" y="428" type="curve"/>
      <point x="505" y="428" type="line"/>
      <point x="505" y="338" type="line" smooth="yes"/>
      <point x="505" y="277"/>
      <point x="488" y="252"/>
      <point x="402" y="252" type="curve" smooth="yes"/>
      <point x="321" y="252"/>
      <point x="289" y="292"/>
      <point x="289" y="422" type="curve" smooth="yes"/>
      <point x="289" y="428" type="line"/>
      <point x="200" y="428" type="line"/>
      <point x="200" y="274" type="line" smooth="yes"/>
      <point x="200" y="207"/>
      <point x="200" y="141"/>
      <point x="207" y="78" type="curve"/>
      <point x="37" y="78" type="line"/>
      <point x="37" y="-100" type="line"/>
      <point x="126" y="-100" type="line"/>
      <point x="126" y="0" type="line"/>
      <point x="215" y="0" type="line"/>
      <point x="234" y="-89"/>
      <point x="275" y="-171"/>
    </contour>
  </outline>
</glyph>
<glyph name="u10B28" format="2">
  <advance width="466"/>
  <unicode hex="10B28"/>
  <outline>
    <contour>
      <point x="250" y="84" type="curve" smooth="yes"/>
      <point x="345" y="84"/>
      <point x="416" y="212"/>
      <point x="416" y="304" type="curve" smooth="yes"/>
      <point x="416" y="366"/>
      <point x="385" y="428"/>
      <point x="268" y="428" type="curve" smooth="yes"/>
      <point x="174" y="428" type="line"/>
      <point x="174" y="581"/>
      <point x="226" y="687"/>
      <point x="304" y="687" type="curve" smooth="yes"/>
      <point x="330" y="687"/>
      <point x="350" y="683"/>
      <point x="370" y="677" type="curve"/>
      <point x="370" y="748" type="line"/>
      <point x="352" y="755"/>
      <point x="327" y="760"/>
      <point x="293" y="760" type="curve" smooth="yes"/>
      <point x="146" y="760"/>
      <point x="93" y="593"/>
      <point x="86" y="428" type="curve"/>
      <point x="20" y="428" type="line"/>
      <point x="20" y="360" type="line"/>
      <point x="85" y="360" type="line"/>
      <point x="92" y="174"/>
      <point x="167" y="84"/>
    </contour>
    <contour>
      <point x="251" y="157" type="curve" smooth="yes"/>
      <point x="209" y="157"/>
      <point x="174" y="248"/>
      <point x="174" y="360" type="curve"/>
      <point x="264" y="360" type="line" smooth="yes"/>
      <point x="303" y="360"/>
      <point x="327" y="333"/>
      <point x="327" y="302" type="curve" smooth="yes"/>
      <point x="327" y="229"/>
      <point x="287" y="157"/>
    </contour>
  </outline>
</glyph>
<glyph name="u10B29" format="2">
  <advance width="466"/>
  <unicode hex="10B29"/>
  <outline>
    <contour>
      <point x="312" y="-114" type="curve"/>
      <point x="337" y="-59" type="line"/>
      <point x="291" y="-46"/>
      <point x="263" y="-2"/>
      <point x="263" y="41" type="curve" smooth="yes"/>
      <point x="263" y="59"/>
      <point x="274" y="79"/>
      <point x="284" y="89" type="curve"/>
      <point x="361" y="115"/>
      <point x="416" y="223"/>
      <point x="416" y="304" type="curve" smooth="yes"/>
      <point x="416" y="366"/>
      <point x="385" y="428"/>
      <point x="268" y="428" type="curve" smooth="yes"/>
      <point x="174" y="428" type="line"/>
      <point x="174" y="581"/>
      <point x="226" y="687"/>
      <point x="304" y="687" type="curve" smooth="yes"/>
      <point x="330" y="687"/>
      <point x="350" y="683"/>
      <point x="370" y="677" type="curve"/>
      <point x="370" y="748" type="line"/>
      <point x="352" y="755"/>
      <point x="327" y="760"/>
      <point x="293" y="760" type="curve" smooth="yes"/>
      <point x="146" y="760"/>
      <point x="93" y="593"/>
      <point x="86" y="428" type="curve"/>
      <point x="20" y="428" type="line"/>
      <point x="20" y="360" type="line"/>
      <point x="85" y="360" type="line"/>
      <point x="90" y="209"/>
      <point x="141" y="121"/>
      <point x="204" y="93" type="curve"/>
      <point x="194" y="76"/>
      <point x="189" y="56"/>
      <point x="189" y="36" type="curve" smooth="yes"/>
      <point x="189" y="-37"/>
      <point x="228" y="-99"/>
    </contour>
    <contour>
      <point x="251" y="157" type="curve" smooth="yes"/>
      <point x="209" y="157"/>
      <point x="174" y="248"/>
      <point x="174" y="360" type="curve"/>
      <point x="264" y="360" type="line" smooth="yes"/>
      <point x="303" y="360"/>
      <point x="327" y="333"/>
      <point x="327" y="302" type="curve" smooth="yes"/>
      <point x="327" y="229"/>
      <point x="287" y="157"/>
    </contour>
  </outline>
</glyph>
<glyph name="u10B2A" format="2">
  <advance width="799"/>
  <unicode hex="10B2A"/>
  <outline>
    <contour>
      <point x="718" y="-138" type="curve"/>
      <point x="718" y="-58" type="line"/>
      <point x="701" y="-47"/>
      <point x="672" y="-29"/>
      <point x="620" y="-29" type="curve" smooth="yes"/>
      <point x="559" y="-29"/>
      <point x="520" y="-45"/>
      <point x="441" y="-45" type="curve" smooth="yes"/>
      <point x="327" y="-45"/>
      <point x="273" y="36"/>
      <point x="273" y="154" type="curve" smooth="yes"/>
      <point x="273" y="278"/>
      <point x="340" y="365"/>
      <point x="543" y="365" type="curve" smooth="yes"/>
      <point x="625" y="365"/>
      <point x="682" y="347"/>
      <point x="738" y="324" type="curve"/>
      <point x="769" y="396" type="line"/>
      <point x="704" y="422"/>
      <point x="635" y="438"/>
      <point x="543" y="438" type="curve" smooth="yes"/>
      <point x="319" y="438"/>
      <point x="198" y="336"/>
      <point x="183" y="188" type="curve"/>
      <point x="166" y="195"/>
      <point x="142" y="200"/>
      <point x="124" y="200" type="curve" smooth="yes"/>
      <point x="44" y="200"/>
      <point x="10" y="154"/>
      <point x="10" y="97" type="curve" smooth="yes"/>
      <point x="10" y="72"/>
      <point x="17" y="46"/>
      <point x="25" y="31" type="curve"/>
      <point x="84" y="46" type="line"/>
      <point x="78" y="58"/>
      <point x="72" y="78"/>
      <point x="72" y="96" type="curve" smooth="yes"/>
      <point x="72" y="125"/>
      <point x="88" y="148"/>
      <point x="129" y="148" type="curve" smooth="yes"/>
      <point x="145" y="148"/>
      <point x="167" y="142"/>
      <point x="182" y="133" type="curve"/>
      <point x="190" y="-17"/>
      <point x="280" y="-118"/>
      <point x="443" y="-118" type="curve" smooth="yes"/>
      <point x="524" y="-118"/>
      <point x="557" y="-103"/>
      <point x="615" y="-103" type="curve" smooth="yes"/>
      <point x="675" y="-103"/>
      <point x="705" y="-127"/>
    </contour>
  </outline>
</glyph>
<glyph name="u10B2B" format="2">
  <advance width="1048"/>
  <unicode hex="10B2B"/>
  <outline>
    <contour>
      <point x="-7" y="-240" type="curve"/>
      <point x="75" y="-240" type="line"/>
      <point x="134" y="-157"/>
      <point x="174" y="-47"/>
      <point x="174" y="154" type="curve" smooth="yes"/>
      <point x="174" y="194"/>
      <point x="169" y="248"/>
      <point x="166" y="273" type="curve"/>
      <point x="182" y="237"/>
      <point x="211" y="219"/>
      <point x="246" y="219" type="curve" smooth="yes"/>
      <point x="307" y="219"/>
      <point x="335" y="245"/>
      <point x="349" y="296" type="curve"/>
      <point x="369" y="238"/>
      <point x="406" y="219"/>
      <point x="450" y="219" type="curve" smooth="yes"/>
      <point x="476" y="219"/>
      <point x="500" y="228"/>
      <point x="517" y="243" type="curve"/>
      <point x="516" y="225"/>
      <point x="516" y="205"/>
      <point x="516" y="184" type="curve" smooth="yes"/>
      <point x="516" y="-23"/>
      <point x="592" y="-117"/>
      <point x="747" y="-117" type="curve" smooth="yes"/>
      <point x="902" y="-117"/>
      <point x="978" y="-23"/>
      <point x="978" y="184" type="curve" smooth="yes"/>
      <point x="978" y="283"/>
      <point x="967" y="349"/>
      <point x="946" y="428" type="curve"/>
      <point x="858" y="428" type="line"/>
      <point x="878" y="348"/>
      <point x="889" y="281"/>
      <point x="889" y="188" type="curve" smooth="yes"/>
      <point x="889" y="28"/>
      <point x="842" y="-45"/>
      <point x="747" y="-45" type="curve" smooth="yes"/>
      <point x="652" y="-45"/>
      <point x="605" y="28"/>
      <point x="605" y="188" type="curve" smooth="yes"/>
      <point x="605" y="281"/>
      <point x="616" y="348"/>
      <point x="636" y="428" type="curve"/>
      <point x="548" y="428" type="line"/>
      <point x="545" y="417" type="line" smooth="yes"/>
      <point x="519" y="320"/>
      <point x="505" y="297"/>
      <point x="453" y="297" type="curve" smooth="yes"/>
      <point x="422" y="297"/>
      <point x="391" y="311"/>
      <point x="391" y="354" type="curve" smooth="yes"/>
      <point x="391" y="375"/>
      <point x="383" y="408"/>
      <point x="371" y="428" type="curve"/>
      <point x="302" y="428" type="line"/>
      <point x="302" y="373" type="line" smooth="yes"/>
      <point x="302" y="317"/>
      <point x="283" y="292"/>
      <point x="237" y="292" type="curve" smooth="yes"/>
      <point x="194" y="292"/>
      <point x="175" y="308"/>
      <point x="175" y="362" type="curve" smooth="yes"/>
      <point x="175" y="380"/>
      <point x="167" y="411"/>
      <point x="155" y="428" type="curve"/>
      <point x="85" y="428" type="line"/>
      <point x="85" y="176" type="line" smooth="yes"/>
      <point x="85" y="-17"/>
      <point x="68" y="-102"/>
    </contour>
  </outline>
</glyph>
<glyph name="u10B2C" format="2">
  <advance width="590"/>
  <unicode hex="10B2C"/>
  <outline>
    <contour>
      <point x="230" y="-146" type="line"/>
      <point x="319" y="-146" type="line"/>
      <point x="319" y="78" type="line"/>
      <point x="451" y="95"/>
      <point x="520" y="188"/>
      <point x="520" y="349" type="curve" smooth="yes"/>
      <point x="520" y="475"/>
      <point x="500" y="543"/>
      <point x="478" y="620" type="curve"/>
      <point x="390" y="620" type="line"/>
      <point x="410" y="540"/>
      <point x="431" y="473"/>
      <point x="431" y="351" type="curve" smooth="yes"/>
      <point x="431" y="220"/>
      <point x="378" y="146"/>
      <point x="272" y="146" type="curve" smooth="yes"/>
      <point x="186" y="146"/>
      <point x="144" y="205"/>
      <point x="144" y="324" type="curve" smooth="yes"/>
      <point x="144" y="448"/>
      <point x="215" y="525"/>
      <point x="215" y="648" type="curve" smooth="yes"/>
      <point x="215" y="685"/>
      <point x="204" y="724"/>
      <point x="197" y="740" type="curve"/>
      <point x="116" y="740" type="line"/>
      <point x="119" y="723"/>
      <point x="132" y="705"/>
      <point x="132" y="650" type="curve" smooth="yes"/>
      <point x="132" y="545"/>
      <point x="55" y="468"/>
      <point x="55" y="329" type="curve" smooth="yes"/>
      <point x="55" y="167"/>
      <point x="115" y="90"/>
      <point x="230" y="77" type="curve"/>
    </contour>
  </outline>
</glyph>
<glyph name="u10B2D" format="2">
  <advance width="340"/>
  <unicode hex="10B2D"/>
  <outline>
    <contour>
      <point x="171" y="94" type="line"/>
      <point x="260" y="94" type="line"/>
      <point x="260" y="113" type="line" smooth="yes"/>
      <point x="260" y="623"/>
      <point x="203" y="760"/>
      <point x="52" y="760" type="curve" smooth="yes"/>
      <point x="18" y="760"/>
      <point x="-7" y="755"/>
      <point x="-25" y="748" type="curve"/>
      <point x="-25" y="677" type="line"/>
      <point x="-5" y="683"/>
      <point x="15" y="687"/>
      <point x="41" y="687" type="curve" smooth="yes"/>
      <point x="136" y="687"/>
      <point x="171" y="557"/>
      <point x="171" y="113" type="curve" smooth="yes"/>
    </contour>
  </outline>
</glyph>
<glyph name="u10B2E" format="2">
  <advance width="579"/>
  <unicode hex="10B2E"/>
  <outline>
    <contour>
      <point x="16" y="-240" type="line"/>
      <point x="188" y="-240"/>
      <point x="280" y="-151"/>
      <point x="280" y="103" type="curve" smooth="yes"/>
      <point x="280" y="137"/>
      <point x="279" y="171"/>
      <point x="278" y="203" type="curve"/>
      <point x="301" y="188"/>
      <point x="329" y="179"/>
      <point x="360" y="179" type="curve" smooth="yes"/>
      <point x="471" y="179"/>
      <point x="534" y="251"/>
      <point x="534" y="353" type="curve" smooth="yes"/>
      <point x="534" y="468"/>
      <point x="465" y="546"/>
      <point x="359" y="546" type="curve" smooth="yes"/>
      <point x="309" y="546"/>
      <point x="272" y="526"/>
      <point x="246" y="497" type="curve"/>
      <point x="219" y="697"/>
      <point x="154" y="760"/>
      <point x="52" y="760" type="curve" smooth="yes"/>
      <point x="18" y="760"/>
      <point x="-7" y="755"/>
      <point x="-25" y="748" type="curve"/>
      <point x="-25" y="677" type="line"/>
      <point x="-5" y="683"/>
      <point x="15" y="687"/>
      <point x="41" y="687" type="curve" smooth="yes"/>
      <point x="90" y="687"/>
      <point x="128" y="653"/>
      <point x="149" y="558" type="curve" smooth="yes"/>
      <point x="176" y="434"/>
      <point x="191" y="269"/>
      <point x="191" y="103" type="curve" smooth="yes"/>
      <point x="191" y="-108"/>
      <point x="128" y="-167"/>
      <point x="16" y="-167" type="curve"/>
    </contour>
    <contour>
      <point x="360" y="252" type="curve" smooth="yes"/>
      <point x="307" y="252"/>
      <point x="267" y="300"/>
      <point x="267" y="374" type="curve" smooth="yes"/>
      <point x="267" y="443"/>
      <point x="307" y="473"/>
      <point x="359" y="473" type="curve" smooth="yes"/>
      <point x="407" y="473"/>
      <point x="450" y="430"/>
      <point x="450" y="357" type="curve" smooth="yes"/>
      <point x="450" y="282"/>
      <point x="410" y="252"/>
    </contour>
  </outline>
</glyph>
<glyph name="u10B2F" format="2">
  <advance width="604"/>
  <unicode hex="10B2F"/>
  <outline>
    <contour>
      <point x="29" y="-108" type="line"/>
      <point x="279" y="-108" type="line" smooth="yes"/>
      <point x="470" y="-108"/>
      <point x="549" y="-23"/>
      <point x="549" y="158" type="curve" smooth="yes"/>
      <point x="549" y="283"/>
      <point x="505" y="361"/>
      <point x="444" y="428" type="curve"/>
      <point x="356" y="428" type="line"/>
      <point x="418" y="353"/>
      <point x="460" y="281"/>
      <point x="460" y="158" type="curve" smooth="yes"/>
      <point x="460" y="28"/>
      <point x="410" y="-40"/>
      <point x="278" y="-40" type="curve" smooth="yes"/>
      <point x="142" y="-40" type="line"/>
      <point x="185" y="9"/>
      <point x="231" y="80"/>
      <point x="231" y="187" type="curve" smooth="yes"/>
      <point x="231" y="365"/>
      <point x="153" y="438"/>
      <point x="75" y="438" type="curve" smooth="yes"/>
      <point x="53" y="438"/>
      <point x="30" y="434"/>
      <point x="10" y="425" type="curve"/>
      <point x="29" y="355" type="line"/>
      <point x="41" y="361"/>
      <point x="53" y="363"/>
      <point x="65" y="363" type="curve" smooth="yes"/>
      <point x="104" y="363"/>
      <point x="142" y="303"/>
      <point x="142" y="178" type="curve" smooth="yes"/>
      <point x="142" y="62"/>
      <point x="104" y="0"/>
      <point x="60" y="-40" type="curve"/>
      <point x="29" y="-40" type="line"/>
    </contour>
  </outline>
</glyph>
<glyph name="u10B30" format="2">
  <advance width="269"/>
  <unicode hex="10B30"/>
  <outline>
    <contour>
      <point x="-50" y="-240" type="curve"/>
      <point x="32" y="-240" type="line"/>
      <point x="136" y="-141"/>
      <point x="179" y="-15"/>
      <point x="179" y="274" type="curve" smooth="yes"/>
      <point x="179" y="540"/>
      <point x="200" y="620"/>
      <point x="319" y="760" type="curve"/>
      <point x="236" y="760" type="line"/>
      <point x="134" y="656"/>
      <point x="90" y="535"/>
      <point x="90" y="275" type="curve" smooth="yes"/>
      <point x="90" y="-16"/>
      <point x="64" y="-102"/>
    </contour>
  </outline>
</glyph>
<glyph name="u10B31" format="2">
  <advance width="921"/>
  <unicode hex="10B31"/>
  <outline>
    <contour>
      <point x="620" y="-118" type="curve" smooth="yes"/>
      <point x="775" y="-118"/>
      <point x="851" y="-23"/>
      <point x="851" y="184" type="curve" smooth="yes"/>
      <point x="851" y="283"/>
      <point x="840" y="349"/>
      <point x="819" y="428" type="curve"/>
      <point x="731" y="428" type="line"/>
      <point x="751" y="348"/>
      <point x="762" y="281"/>
      <point x="762" y="188" type="curve" smooth="yes"/>
      <point x="762" y="28"/>
      <point x="715" y="-46"/>
      <point x="620" y="-46" type="curve" smooth="yes"/>
      <point x="525" y="-46"/>
      <point x="478" y="28"/>
      <point x="478" y="188" type="curve" smooth="yes"/>
      <point x="478" y="281"/>
      <point x="489" y="348"/>
      <point x="509" y="428" type="curve"/>
      <point x="421" y="428" type="line"/>
      <point x="418" y="417" type="line" smooth="yes"/>
      <point x="393" y="320"/>
      <point x="378" y="297"/>
      <point x="326" y="297" type="curve" smooth="yes"/>
      <point x="295" y="297"/>
      <point x="264" y="311"/>
      <point x="264" y="354" type="curve" smooth="yes"/>
      <point x="264" y="375"/>
      <point x="256" y="408"/>
      <point x="244" y="428" type="curve"/>
      <point x="175" y="428" type="line"/>
      <point x="175" y="373" type="line" smooth="yes"/>
      <point x="175" y="317"/>
      <point x="156" y="292"/>
      <point x="110" y="292" type="curve" smooth="yes"/>
      <point x="20" y="292" type="line"/>
      <point x="20" y="229" type="line"/>
      <point x="50" y="222"/>
      <point x="92" y="219"/>
      <point x="119" y="219" type="curve" smooth="yes"/>
      <point x="180" y="219"/>
      <point x="208" y="245"/>
      <point x="222" y="296" type="curve"/>
      <point x="242" y="238"/>
      <point x="279" y="219"/>
      <point x="323" y="219" type="curve" smooth="yes"/>
      <point x="349" y="219"/>
      <point x="373" y="228"/>
      <point x="390" y="243" type="curve"/>
      <point x="389" y="225"/>
      <point x="389" y="205"/>
      <point x="389" y="184" type="curve" smooth="yes"/>
      <point x="389" y="-23"/>
      <point x="465" y="-118"/>
    </contour>
  </outline>
</glyph>
<glyph name="u10B32" format="2">
  <advance width="943"/>
  <unicode hex="10B32"/>
  <outline>
    <contour>
      <point x="297" y="-118" type="curve" smooth="yes"/>
      <point x="404" y="-118"/>
      <point x="461" y="-84"/>
      <point x="499" y="-12" type="curve"/>
      <point x="523" y="-81"/>
      <point x="584" y="-118"/>
      <point x="670" y="-118" type="curve" smooth="yes"/>
      <point x="803" y="-118"/>
      <point x="873" y="-23"/>
      <point x="873" y="157" type="curve" smooth="yes"/>
      <point x="873" y="283"/>
      <point x="841" y="369"/>
      <point x="811" y="428" type="curve"/>
      <point x="723" y="428" type="line"/>
      <point x="756" y="350"/>
      <point x="784" y="273"/>
      <point x="784" y="153" type="curve" smooth="yes"/>
      <point x="784" y="20"/>
      <point x="744" y="-46"/>
      <point x="664" y="-46" type="curve" smooth="yes"/>
      <point x="592" y="-46"/>
      <point x="548" y="2"/>
      <point x="548" y="118" type="curve" smooth="yes"/>
      <point x="548" y="428" type="line"/>
      <point x="459" y="428" type="line"/>
      <point x="459" y="119" type="line" smooth="yes"/>
      <point x="459" y="13"/>
      <point x="405" y="-46"/>
      <point x="297" y="-46" type="curve" smooth="yes"/>
      <point x="213" y="-46"/>
      <point x="178" y="25"/>
      <point x="163" y="94" type="curve"/>
      <point x="209" y="94" type="line" smooth="yes"/>
      <point x="322" y="94"/>
      <point x="346" y="147"/>
      <point x="346" y="209" type="curve" smooth="yes"/>
      <point x="346" y="360"/>
      <point x="286" y="439"/>
      <point x="205" y="439" type="curve" smooth="yes"/>
      <point x="131" y="439"/>
      <point x="65" y="350"/>
      <point x="65" y="206" type="curve" smooth="yes"/>
      <point x="65" y="-1"/>
      <point x="142" y="-118"/>
    </contour>
    <contour>
      <point x="155" y="162" type="line"/>
      <point x="154" y="175"/>
      <point x="154" y="188"/>
      <point x="154" y="200" type="curve" smooth="yes"/>
      <point x="154" y="299"/>
      <point x="171" y="366"/>
      <point x="206" y="366" type="curve" smooth="yes"/>
      <point x="239" y="366"/>
      <point x="257" y="309"/>
      <point x="257" y="211" type="curve" smooth="yes"/>
      <point x="257" y="180"/>
      <point x="241" y="162"/>
      <point x="199" y="162" type="curve" smooth="yes"/>
    </contour>
  </outline>
</glyph>
<glyph name="u10B33" format="2">
  <advance width="1136"/>
  <unicode hex="10B33"/>
  <outline>
    <contour>
      <point x="835" y="-118" type="curve" smooth="yes"/>
      <point x="990" y="-118"/>
      <point x="1066" y="-24"/>
      <point x="1066" y="184" type="curve" smooth="yes"/>
      <point x="1066" y="283"/>
      <point x="1055" y="349"/>
      <point x="1034" y="428" type="curve"/>
      <point x="946" y="428" type="line"/>
      <point x="966" y="348"/>
      <point x="977" y="281"/>
      <point x="977" y="188" type="curve" smooth="yes"/>
      <point x="977" y="27"/>
      <point x="930" y="-46"/>
      <point x="835" y="-46" type="curve" smooth="yes"/>
      <point x="740" y="-46"/>
      <point x="693" y="27"/>
      <point x="693" y="188" type="curve" smooth="yes"/>
      <point x="693" y="281"/>
      <point x="704" y="348"/>
      <point x="724" y="428" type="curve"/>
      <point x="636" y="428" type="line"/>
      <point x="635" y="424"/>
      <point x="631" y="410"/>
      <point x="629" y="398" type="curve" smooth="yes"/>
      <point x="610" y="286"/>
      <point x="591" y="252"/>
      <point x="531" y="252" type="curve" smooth="yes"/>
      <point x="498" y="252"/>
      <point x="479" y="277"/>
      <point x="479" y="329" type="curve" smooth="yes"/>
      <point x="479" y="357"/>
      <point x="471" y="401"/>
      <point x="459" y="428" type="curve"/>
      <point x="390" y="428" type="line"/>
      <point x="390" y="355" type="line" smooth="yes"/>
      <point x="390" y="271"/>
      <point x="368" y="244"/>
      <point x="294" y="242" type="curve"/>
      <point x="291" y="377"/>
      <point x="237" y="438"/>
      <point x="157" y="438" type="curve" smooth="yes"/>
      <point x="88" y="438"/>
      <point x="36" y="394"/>
      <point x="36" y="319" type="curve" smooth="yes"/>
      <point x="36" y="254"/>
      <point x="86" y="195"/>
      <point x="205" y="178" type="curve"/>
      <point x="194" y="74"/>
      <point x="151" y="-20"/>
      <point x="103" y="-108" type="curve"/>
      <point x="187" y="-108" type="line"/>
      <point x="246" y="-14"/>
      <point x="281" y="76"/>
      <point x="291" y="174" type="curve"/>
      <point x="385" y="177"/>
      <point x="420" y="209"/>
      <point x="432" y="251" type="curve"/>
      <point x="446" y="195"/>
      <point x="481" y="174"/>
      <point x="521" y="174" type="curve" smooth="yes"/>
      <point x="564" y="174"/>
      <point x="588" y="186"/>
      <point x="606" y="223" type="curve"/>
      <point x="605" y="205"/>
      <point x="604" y="205"/>
      <point x="604" y="184" type="curve" smooth="yes"/>
      <point x="604" y="-24"/>
      <point x="680" y="-118"/>
    </contour>
    <contour>
      <point x="208" y="247" type="curve"/>
      <point x="144" y="258"/>
      <point x="120" y="285"/>
      <point x="120" y="321" type="curve" smooth="yes"/>
      <point x="120" y="353"/>
      <point x="137" y="365"/>
      <point x="157" y="365" type="curve" smooth="yes"/>
      <point x="181" y="365"/>
      <point x="206" y="334"/>
    </contour>
  </outline>
</glyph>
<glyph name="u10B34" format="2">
  <advance width="1086"/>
  <unicode hex="10B34"/>
  <outline>
    <contour>
      <point x="483" y="-240" type="curve" smooth="yes"/>
      <point x="620" y="-240"/>
      <point x="740" y="-226"/>
      <point x="850" y="-201" type="curve"/>
      <point x="850" y="-124" type="line"/>
      <point x="727" y="-154"/>
      <point x="604" y="-166"/>
      <point x="486" y="-166" type="curve" smooth="yes"/>
      <point x="344" y="-166"/>
      <point x="248" y="-126"/>
      <point x="198" y="-40" type="curve"/>
      <point x="461" y="-6" type="line"/>
      <point x="451" y="67" type="line"/>
      <point x="171" y="29" type="line"/>
      <point x="163" y="61"/>
      <point x="159" y="95"/>
      <point x="159" y="135" type="curve" smooth="yes"/>
      <point x="159" y="162"/>
      <point x="159" y="189"/>
      <point x="160" y="215" type="curve"/>
      <point x="181" y="190"/>
      <point x="211" y="174"/>
      <point x="246" y="174" type="curve" smooth="yes"/>
      <point x="334" y="174"/>
      <point x="360" y="207"/>
      <point x="372" y="251" type="curve"/>
      <point x="386" y="195"/>
      <point x="431" y="174"/>
      <point x="471" y="174" type="curve" smooth="yes"/>
      <point x="514" y="174"/>
      <point x="538" y="186"/>
      <point x="556" y="223" type="curve"/>
      <point x="555" y="205"/>
      <point x="554" y="205"/>
      <point x="554" y="184" type="curve" smooth="yes"/>
      <point x="554" y="21"/>
      <point x="630" y="-53"/>
      <point x="785" y="-53" type="curve" smooth="yes"/>
      <point x="940" y="-53"/>
      <point x="1016" y="21"/>
      <point x="1016" y="184" type="curve" smooth="yes"/>
      <point x="1016" y="283"/>
      <point x="1005" y="349"/>
      <point x="984" y="428" type="curve"/>
      <point x="896" y="428" type="line"/>
      <point x="916" y="348"/>
      <point x="927" y="281"/>
      <point x="927" y="188" type="curve" smooth="yes"/>
      <point x="927" y="72"/>
      <point x="880" y="19"/>
      <point x="785" y="19" type="curve" smooth="yes"/>
      <point x="690" y="19"/>
      <point x="643" y="72"/>
      <point x="643" y="188" type="curve" smooth="yes"/>
      <point x="643" y="281"/>
      <point x="654" y="348"/>
      <point x="674" y="428" type="curve"/>
      <point x="586" y="428" type="line"/>
      <point x="585" y="424"/>
      <point x="581" y="410"/>
      <point x="579" y="398" type="curve" smooth="yes"/>
      <point x="560" y="286"/>
      <point x="541" y="252"/>
      <point x="481" y="252" type="curve" smooth="yes"/>
      <point x="448" y="252"/>
      <point x="419" y="277"/>
      <point x="419" y="329" type="curve" smooth="yes"/>
      <point x="419" y="357"/>
      <point x="411" y="401"/>
      <point x="399" y="428" type="curve"/>
      <point x="330" y="428" type="line"/>
      <point x="330" y="355" type="line" smooth="yes"/>
      <point x="330" y="275"/>
      <point x="311" y="252"/>
      <point x="248" y="252" type="curve" smooth="yes"/>
      <point x="198" y="252"/>
      <point x="179" y="277"/>
      <point x="179" y="329" type="curve" smooth="yes"/>
      <point x="179" y="353"/>
      <point x="184" y="391"/>
      <point x="194" y="428" type="curve"/>
      <point x="110" y="428" type="line"/>
      <point x="82" y="328"/>
      <point x="70" y="223"/>
      <point x="70" y="122" type="curve" smooth="yes"/>
      <point x="70" y="-127"/>
      <point x="207" y="-240"/>
    </contour>
  </outline>
</glyph>
<glyph name="u10B35" format="2">
  <advance width="822"/>
  <unicode hex="10B35"/>
  <outline>
    <contour>
      <point x="297" y="-118" type="curve" smooth="yes"/>
      <point x="484" y="-118"/>
      <point x="556" y="-23"/>
      <point x="556" y="184" type="curve" smooth="yes"/>
      <point x="556" y="199" type="line"/>
      <point x="575" y="184"/>
      <point x="598" y="178"/>
      <point x="621" y="178" type="curve" smooth="yes"/>
      <point x="725" y="178"/>
      <point x="777" y="230"/>
      <point x="777" y="322" type="curve" smooth="yes"/>
      <point x="777" y="350"/>
      <point x="767" y="397"/>
      <point x="757" y="428" type="curve"/>
      <point x="688" y="428" type="line"/>
      <point x="688" y="338" type="line" smooth="yes"/>
      <point x="688" y="280"/>
      <point x="668" y="251"/>
      <point x="621" y="251" type="curve" smooth="yes"/>
      <point x="590" y="251"/>
      <point x="556" y="276"/>
      <point x="556" y="332" type="curve" smooth="yes"/>
      <point x="556" y="359"/>
      <point x="548" y="402"/>
      <point x="536" y="428" type="curve"/>
      <point x="467" y="428" type="line"/>
      <point x="467" y="188" type="line" smooth="yes"/>
      <point x="467" y="28"/>
      <point x="424" y="-46"/>
      <point x="297" y="-46" type="curve" smooth="yes"/>
      <point x="213" y="-46"/>
      <point x="178" y="24"/>
      <point x="163" y="93" type="curve"/>
      <point x="209" y="93" type="line" smooth="yes"/>
      <point x="322" y="93"/>
      <point x="346" y="146"/>
      <point x="346" y="208" type="curve" smooth="yes"/>
      <point x="346" y="359"/>
      <point x="286" y="438"/>
      <point x="205" y="438" type="curve" smooth="yes"/>
      <point x="131" y="438"/>
      <point x="65" y="349"/>
      <point x="65" y="205" type="curve" smooth="yes"/>
      <point x="65" y="-2"/>
      <point x="142" y="-118"/>
    </contour>
    <contour>
      <point x="155" y="161" type="line"/>
      <point x="154" y="174"/>
      <point x="154" y="187"/>
      <point x="154" y="199" type="curve" smooth="yes"/>
      <point x="154" y="298"/>
      <point x="171" y="365"/>
      <point x="206" y="365" type="curve" smooth="yes"/>
      <point x="239" y="365"/>
      <point x="257" y="308"/>
      <point x="257" y="210" type="curve" smooth="yes"/>
      <point x="257" y="179"/>
      <point x="241" y="161"/>
      <point x="199" y="161" type="curve" smooth="yes"/>
    </contour>
  </outline>
</glyph>
<glyph name="u10B39" format="2">
  <advance width="577"/>
  <unicode hex="10B39"/>
  <outline>
    <contour>
      <point x="287" y="237" type="curve" smooth="yes"/>
      <point x="345" y="237"/>
      <point x="388" y="272"/>
      <point x="388" y="334" type="curve" smooth="yes"/>
      <point x="388" y="393"/>
      <point x="344" y="428"/>
      <point x="287" y="428" type="curve" smooth="yes"/>
      <point x="228" y="428"/>
      <point x="188" y="393"/>
      <point x="188" y="333" type="curve" smooth="yes"/>
      <point x="188" y="272"/>
      <point x="228" y="237"/>
    </contour>
    <contour>
      <point x="287" y="267" type="curve" smooth="yes"/>
      <point x="245" y="267"/>
      <point x="221" y="292"/>
      <point x="221" y="333" type="curve" smooth="yes"/>
      <point x="221" y="374"/>
      <point x="249" y="399"/>
      <point x="287" y="399" type="curve" smooth="yes"/>
      <point x="325" y="399"/>
      <point x="353" y="374"/>
      <point x="353" y="333" type="curve" smooth="yes"/>
      <point x="353" y="292"/>
      <point x="326" y="267"/>
    </contour>
  </outline>
</glyph>
<glyph name="u10B3A" format="2">
  <advance width="510"/>
  <unicode hex="10B3A"/>
  <outline>
    <contour>
      <point x="406" y="287" type="curve" smooth="yes"/>
      <point x="435" y="287"/>
      <point x="455" y="305"/>
      <point x="455" y="335" type="curve" smooth="yes"/>
      <point x="455" y="365"/>
      <point x="435" y="383"/>
      <point x="406" y="383" type="curve" smooth="yes"/>
      <point x="377" y="383"/>
      <point x="355" y="365"/>
      <point x="355" y="334" type="curve" smooth="yes"/>
      <point x="355" y="305"/>
      <point x="377" y="287"/>
    </contour>
    <contour>
      <point x="256" y="40" type="curve" smooth="yes"/>
      <point x="285" y="40"/>
      <point x="305" y="57"/>
      <point x="305" y="87" type="curve" smooth="yes"/>
      <point x="305" y="118"/>
      <point x="285" y="135"/>
      <point x="256" y="135" type="curve" smooth="yes"/>
      <point x="227" y="135"/>
      <point x="205" y="118"/>
      <point x="205" y="87" type="curve" smooth="yes"/>
      <point x="205" y="57"/>
      <point x="227" y="40"/>
    </contour>
    <contour>
      <point x="106" y="287" type="curve" smooth="yes"/>
      <point x="135" y="287"/>
      <point x="155" y="305"/>
      <point x="155" y="335" type="curve" smooth="yes"/>
      <point x="155" y="365"/>
      <point x="135" y="383"/>
      <point x="106" y="383" type="curve" smooth="yes"/>
      <point x="77" y="383"/>
      <point x="55" y="365"/>
      <point x="55" y="334" type="curve" smooth="yes"/>
      <point x="55" y="305"/>
      <point x="77" y="287"/>
    </contour>
  </outline>
</glyph>
<glyph name="u10B3B" format="2">
  <advance width="710"/>
  <unicode hex="10B3B"/>
  <outline>
    <contour>
      <point x="356" y="-33" type="curve" smooth="yes"/>
      <point x="400" y="-33"/>
      <point x="430" y="-6"/>
      <point x="430" y="39" type="curve" smooth="yes"/>
      <point x="430" y="85"/>
      <point x="400" y="111"/>
      <point x="356" y="111" type="curve" smooth="yes"/>
      <point x="313" y="111"/>
      <point x="280" y="85"/>
      <point x="280" y="38" type="curve" smooth="yes"/>
      <point x="280" y="-6"/>
      <point x="313" y="-33"/>
    </contour>
    <contour>
      <point x="131" y="339" type="curve" smooth="yes"/>
      <point x="175" y="339"/>
      <point x="205" y="365"/>
      <point x="205" y="410" type="curve" smooth="yes"/>
      <point x="205" y="456"/>
      <point x="175" y="482"/>
      <point x="131" y="482" type="curve" smooth="yes"/>
      <point x="88" y="482"/>
      <point x="55" y="456"/>
      <point x="55" y="409" type="curve" smooth="yes"/>
      <point x="55" y="365"/>
      <point x="88" y="339"/>
    </contour>
    <contour>
      <point x="581" y="339" type="curve" smooth="yes"/>
      <point x="625" y="339"/>
      <point x="655" y="365"/>
      <point x="655" y="410" type="curve" smooth="yes"/>
      <point x="655" y="456"/>
      <point x="625" y="482"/>
      <point x="581" y="482" type="curve" smooth="yes"/>
      <point x="538" y="482"/>
      <point x="505" y="456"/>
      <point x="505" y="409" type="curve" smooth="yes"/>
      <point x="505" y="365"/>
      <point x="538" y="339"/>
    </contour>
  </outline>
</glyph>
<glyph name="u10B3C" format="2">
  <advance width="910"/>
  <unicode hex="10B3C"/>
  <outline>
    <contour>
      <point x="756" y="369" type="curve" smooth="yes"/>
      <point x="815" y="369"/>
      <point x="855" y="404"/>
      <point x="855" y="464" type="curve" smooth="yes"/>
      <point x="855" y="525"/>
      <point x="815" y="560"/>
      <point x="756" y="560" type="curve" smooth="yes"/>
      <point x="698" y="560"/>
      <point x="655" y="525"/>
      <point x="655" y="463" type="curve" smooth="yes"/>
      <point x="655" y="404"/>
      <point x="699" y="369"/>
    </contour>
    <contour>
      <point x="456" y="-126" type="curve" smooth="yes"/>
      <point x="515" y="-126"/>
      <point x="555" y="-91"/>
      <point x="555" y="-31" type="curve" smooth="yes"/>
      <point x="555" y="30"/>
      <point x="515" y="65"/>
      <point x="456" y="65" type="curve" smooth="yes"/>
      <point x="398" y="65"/>
      <point x="355" y="30"/>
      <point x="355" y="-32" type="curve" smooth="yes"/>
      <point x="355" y="-91"/>
      <point x="399" y="-126"/>
    </contour>
    <contour>
      <point x="156" y="369" type="curve" smooth="yes"/>
      <point x="215" y="369"/>
      <point x="255" y="404"/>
      <point x="255" y="464" type="curve" smooth="yes"/>
      <point x="255" y="525"/>
      <point x="215" y="560"/>
      <point x="156" y="560" type="curve" smooth="yes"/>
      <point x="98" y="560"/>
      <point x="55" y="525"/>
      <point x="55" y="463" type="curve" smooth="yes"/>
      <point x="55" y="404"/>
      <point x="99" y="369"/>
    </contour>
  </outline>
</glyph>
<glyph name="u10B3D" format="2">
  <advance width="910"/>
  <unicode hex="10B3D"/>
  <outline>
    <contour>
      <point x="454" y="377" type="curve" smooth="yes"/>
      <point x="512" y="377"/>
      <point x="555" y="412"/>
      <point x="555" y="474" type="curve" smooth="yes"/>
      <point x="555" y="533"/>
      <point x="511" y="568"/>
      <point x="454" y="568" type="curve" smooth="yes"/>
      <point x="395" y="568"/>
      <point x="355" y="533"/>
      <point x="355" y="473" type="curve" smooth="yes"/>
      <point x="355" y="412"/>
      <point x="395" y="377"/>
    </contour>
    <contour>
      <point x="154" y="-118" type="curve" smooth="yes"/>
      <point x="212" y="-118"/>
      <point x="255" y="-83"/>
      <point x="255" y="-21" type="curve" smooth="yes"/>
      <point x="255" y="38"/>
      <point x="211" y="73"/>
      <point x="154" y="73" type="curve" smooth="yes"/>
      <point x="95" y="73"/>
      <point x="55" y="38"/>
      <point x="55" y="-22" type="curve" smooth="yes"/>
      <point x="55" y="-83"/>
      <point x="95" y="-118"/>
    </contour>
    <contour>
      <point x="754" y="-118" type="curve" smooth="yes"/>
      <point x="812" y="-118"/>
      <point x="855" y="-83"/>
      <point x="855" y="-21" type="curve" smooth="yes"/>
      <point x="855" y="38"/>
      <point x="811" y="73"/>
      <point x="754" y="73" type="curve" smooth="yes"/>
      <point x="695" y="73"/>
      <point x="655" y="38"/>
      <point x="655" y="-22" type="curve" smooth="yes"/>
      <point x="655" y="-83"/>
      <point x="695" y="-118"/>
    </contour>
  </outline>
</glyph>
<glyph name="u10B3E" format="2">
  <advance width="910"/>
  <unicode hex="10B3E"/>
  <outline>
    <contour>
      <point x="756" y="377" type="curve" smooth="yes"/>
      <point x="815" y="377"/>
      <point x="855" y="412"/>
      <point x="855" y="472" type="curve" smooth="yes"/>
      <point x="855" y="533"/>
      <point x="815" y="568"/>
      <point x="756" y="568" type="curve" smooth="yes"/>
      <point x="698" y="568"/>
      <point x="655" y="533"/>
      <point x="655" y="471" type="curve" smooth="yes"/>
      <point x="655" y="412"/>
      <point x="699" y="377"/>
    </contour>
    <contour>
      <point x="456" y="-118" type="curve" smooth="yes"/>
      <point x="515" y="-118"/>
      <point x="555" y="-83"/>
      <point x="555" y="-23" type="curve" smooth="yes"/>
      <point x="555" y="38"/>
      <point x="515" y="73"/>
      <point x="456" y="73" type="curve" smooth="yes"/>
      <point x="398" y="73"/>
      <point x="355" y="38"/>
      <point x="355" y="-24" type="curve" smooth="yes"/>
      <point x="355" y="-83"/>
      <point x="399" y="-118"/>
    </contour>
    <contour>
      <point x="456" y="-89" type="curve" smooth="yes"/>
      <point x="418" y="-89"/>
      <point x="390" y="-64"/>
      <point x="390" y="-23" type="curve" smooth="yes"/>
      <point x="390" y="18"/>
      <point x="417" y="43"/>
      <point x="456" y="43" type="curve" smooth="yes"/>
      <point x="498" y="43"/>
      <point x="522" y="18"/>
      <point x="522" y="-23" type="curve" smooth="yes"/>
      <point x="522" y="-64"/>
      <point x="494" y="-89"/>
    </contour>
    <contour>
      <point x="156" y="377" type="curve" smooth="yes"/>
      <point x="215" y="377"/>
      <point x="255" y="412"/>
      <point x="255" y="472" type="curve" smooth="yes"/>
      <point x="255" y="533"/>
      <point x="215" y="568"/>
      <point x="156" y="568" type="curve" smooth="yes"/>
      <point x="98" y="568"/>
      <point x="55" y="533"/>
      <point x="55" y="471" type="curve" smooth="yes"/>
      <point x="55" y="412"/>
      <point x="99" y="377"/>
    </contour>
    <contour>
      <point x="156" y="406" type="curve" smooth="yes"/>
      <point x="118" y="406"/>
      <point x="90" y="431"/>
      <point x="90" y="472" type="curve" smooth="yes"/>
      <point x="90" y="513"/>
      <point x="117" y="538"/>
      <point x="156" y="538" type="curve" smooth="yes"/>
      <point x="198" y="538"/>
      <point x="222" y="513"/>
      <point x="222" y="472" type="curve" smooth="yes"/>
      <point x="222" y="431"/>
      <point x="194" y="406"/>
    </contour>
    <contour>
      <point x="756" y="406" type="curve" smooth="yes"/>
      <point x="718" y="406"/>
      <point x="690" y="431"/>
      <point x="690" y="472" type="curve" smooth="yes"/>
      <point x="690" y="513"/>
      <point x="717" y="538"/>
      <point x="756" y="538" type="curve" smooth="yes"/>
      <point x="798" y="538"/>
      <point x="822" y="513"/>
      <point x="822" y="472" type="curve" smooth="yes"/>
      <point x="822" y="431"/>
      <point x="794" y="406"/>
    </contour>
  </outline>
</glyph>
<glyph name="u10B3F" format="2">
  <advance width="910"/>
  <unicode hex="10B3F"/>
  <outline>
    <contour>
      <point x="454" y="377" type="curve" smooth="yes"/>
      <point x="512" y="377"/>
      <point x="555" y="412"/>
      <point x="555" y="474" type="curve" smooth="yes"/>
      <point x="555" y="533"/>
      <point x="511" y="568"/>
      <point x="454" y="568" type="curve" smooth="yes"/>
      <point x="395" y="568"/>
      <point x="355" y="533"/>
      <point x="355" y="473" type="curve" smooth="yes"/>
      <point x="355" y="412"/>
      <point x="395" y="377"/>
    </contour>
    <contour>
      <point x="154" y="-118" type="curve" smooth="yes"/>
      <point x="212" y="-118"/>
      <point x="255" y="-83"/>
      <point x="255" y="-21" type="curve" smooth="yes"/>
      <point x="255" y="38"/>
      <point x="211" y="73"/>
      <point x="154" y="73" type="curve" smooth="yes"/>
      <point x="95" y="73"/>
      <point x="55" y="38"/>
      <point x="55" y="-22" type="curve" smooth="yes"/>
      <point x="55" y="-83"/>
      <point x="95" y="-118"/>
    </contour>
    <contour>
      <point x="154" y="-88" type="curve" smooth="yes"/>
      <point x="112" y="-88"/>
      <point x="88" y="-63"/>
      <point x="88" y="-22" type="curve" smooth="yes"/>
      <point x="88" y="19"/>
      <point x="116" y="44"/>
      <point x="154" y="44" type="curve" smooth="yes"/>
      <point x="192" y="44"/>
      <point x="220" y="19"/>
      <point x="220" y="-22" type="curve" smooth="yes"/>
      <point x="220" y="-63"/>
      <point x="193" y="-88"/>
    </contour>
    <contour>
      <point x="754" y="-118" type="curve" smooth="yes"/>
      <point x="812" y="-118"/>
      <point x="855" y="-83"/>
      <point x="855" y="-21" type="curve" smooth="yes"/>
      <point x="855" y="38"/>
      <point x="811" y="73"/>
      <point x="754" y="73" type="curve" smooth="yes"/>
      <point x="695" y="73"/>
      <point x="655" y="38"/>
      <point x="655" y="-22" type="curve" smooth="yes"/>
      <point x="655" y="-83"/>
      <point x="695" y="-118"/>
    </contour>
    <contour>
      <point x="754" y="-88" type="curve" smooth="yes"/>
      <point x="712" y="-88"/>
      <point x="688" y="-63"/>
      <point x="688" y="-22" type="curve" smooth="yes"/>
      <point x="688" y="19"/>
      <point x="716" y="44"/>
      <point x="754" y="44" type="curve" smooth="yes"/>
      <point x="792" y="44"/>
      <point x="820" y="19"/>
      <point x="820" y="-22" type="curve" smooth="yes"/>
      <point x="820" y="-63"/>
      <point x="793" y="-88"/>
    </contour>
    <contour>
      <point x="454" y="407" type="curve" smooth="yes"/>
      <point x="412" y="407"/>
      <point x="388" y="432"/>
      <point x="388" y="473" type="curve" smooth="yes"/>
      <point x="388" y="514"/>
      <point x="416" y="539"/>
      <point x="454" y="539" type="curve" smooth="yes"/>
      <point x="492" y="539"/>
      <point x="520" y="514"/>
      <point x="520" y="473" type="curve" smooth="yes"/>
      <point x="520" y="432"/>
      <point x="493" y="407"/>
    </contour>
  </outline>
</glyph>
<glyph name="u10B0010B35" format="2">
  <advance width="1396"/>
  <outline>
    <contour>
      <point x="297" y="-118" type="curve" smooth="yes"/>
      <point x="477" y="-118"/>
      <point x="556" y="-31"/>
      <point x="556" y="185" type="curve" smooth="yes"/>
      <point x="556" y="200" type="line"/>
      <point x="573" y="186"/>
      <point x="595" y="179"/>
      <point x="621" y="179" type="curve" smooth="yes"/>
      <point x="642" y="179"/>
      <point x="660" y="181"/>
      <point x="677" y="185" type="curve"/>
      <point x="677" y="-22"/>
      <point x="753" y="-118"/>
      <point x="908" y="-118" type="curve" smooth="yes"/>
      <point x="1063" y="-118"/>
      <point x="1139" y="-23"/>
      <point x="1139" y="184" type="curve" smooth="yes"/>
      <point x="1139" y="193" type="line"/>
      <point x="1154" y="184"/>
      <point x="1173" y="179"/>
      <point x="1195" y="179" type="curve" smooth="yes"/>
      <point x="1299" y="179"/>
      <point x="1351" y="231"/>
      <point x="1351" y="323" type="curve" smooth="yes"/>
      <point x="1351" y="348"/>
      <point x="1342" y="396"/>
      <point x="1331" y="429" type="curve"/>
      <point x="1262" y="429" type="line"/>
      <point x="1262" y="339" type="line" smooth="yes"/>
      <point x="1262" y="279"/>
      <point x="1242" y="252"/>
      <point x="1195" y="252" type="curve" smooth="yes"/>
      <point x="1172" y="252"/>
      <point x="1144" y="269"/>
      <point x="1130" y="299" type="curve"/>
      <point x="1125" y="346"/>
      <point x="1116" y="395"/>
      <point x="1107" y="428" type="curve"/>
      <point x="1019" y="428" type="line"/>
      <point x="1043" y="323"/>
      <point x="1050" y="276"/>
      <point x="1050" y="188" type="curve" smooth="yes"/>
      <point x="1050" y="28"/>
      <point x="1003" y="-46"/>
      <point x="908" y="-46" type="curve" smooth="yes"/>
      <point x="813" y="-46"/>
      <point x="766" y="28"/>
      <point x="766" y="188" type="curve" smooth="yes"/>
      <point x="766" y="273"/>
      <point x="773" y="326"/>
      <point x="797" y="428" type="curve"/>
      <point x="709" y="428" type="line"/>
      <point x="694" y="377"/>
      <point x="686" y="332"/>
      <point x="682" y="292" type="curve"/>
      <point x="673" y="265"/>
      <point x="652" y="252"/>
      <point x="621" y="252" type="curve" smooth="yes"/>
      <point x="582" y="252"/>
      <point x="556" y="283"/>
      <point x="556" y="332" type="curve" smooth="yes"/>
      <point x="556" y="357"/>
      <point x="546" y="404"/>
      <point x="536" y="428" type="curve"/>
      <point x="467" y="428" type="line"/>
      <point x="467" y="189" type="line" smooth="yes"/>
      <point x="467" y="21"/>
      <point x="419" y="-46"/>
      <point x="297" y="-46" type="curve" smooth="yes"/>
      <point x="229" y="-46"/>
      <point x="184" y="1"/>
      <point x="163" y="94" type="curve"/>
      <point x="209" y="94" type="line" smooth="yes"/>
      <point x="301" y="94"/>
      <point x="346" y="128"/>
      <point x="346" y="209" type="curve" smooth="yes"/>
      <point x="346" y="349"/>
      <point x="291" y="438"/>
      <point x="205" y="438" type="curve" smooth="yes"/>
      <point x="129" y="438"/>
      <point x="65" y="342"/>
      <point x="65" y="210" type="curve" smooth="yes"/>
      <point x="65" y="-3"/>
      <point x="144" y="-118"/>
    </contour>
    <contour>
      <point x="154" y="162" type="line"/>
      <point x="154" y="200" type="line" smooth="yes"/>
      <point x="154" y="304"/>
      <point x="173" y="365"/>
      <point x="206" y="365" type="curve" smooth="yes"/>
      <point x="239" y="365"/>
      <point x="257" y="310"/>
      <point x="257" y="211" type="curve" smooth="yes"/>
      <point x="257" y="179"/>
      <point x="242" y="162"/>
      <point x="199" y="162" type="curve" smooth="yes"/>
    </contour>
  </outline>
</glyph>
<glyph name="u10B3110B00" format="2">
  <advance width="1492"/>
  <outline>
    <contour>
      <point x="1390" y="428" type="curve"/>
      <point x="1302" y="428" type="line"/>
      <point x="1326" y="324"/>
      <point x="1333" y="276"/>
      <point x="1333" y="188" type="curve" smooth="yes"/>
      <point x="1333" y="28"/>
      <point x="1286" y="-46"/>
      <point x="1191" y="-46" type="curve" smooth="yes"/>
      <point x="1096" y="-46"/>
      <point x="1049" y="28"/>
      <point x="1049" y="188" type="curve" smooth="yes"/>
      <point x="1049" y="273"/>
      <point x="1053" y="326"/>
      <point x="1080" y="428" type="curve"/>
      <point x="992" y="428" type="line"/>
      <point x="962" y="315"/>
      <point x="952" y="297"/>
      <point x="897" y="297" type="curve" smooth="yes"/>
      <point x="869" y="297"/>
      <point x="850" y="308"/>
      <point x="841" y="325" type="curve"/>
      <point x="837" y="358"/>
      <point x="830" y="391"/>
      <point x="819" y="428" type="curve"/>
      <point x="731" y="428" type="line"/>
      <point x="755" y="324"/>
      <point x="762" y="276"/>
      <point x="762" y="188" type="curve" smooth="yes"/>
      <point x="762" y="28"/>
      <point x="715" y="-46"/>
      <point x="620" y="-46" type="curve" smooth="yes"/>
      <point x="525" y="-46"/>
      <point x="478" y="28"/>
      <point x="478" y="188" type="curve" smooth="yes"/>
      <point x="478" y="273"/>
      <point x="485" y="325"/>
      <point x="509" y="428" type="curve"/>
      <point x="421" y="428" type="line"/>
      <point x="391" y="315"/>
      <point x="381" y="297"/>
      <point x="326" y="297" type="curve" smooth="yes"/>
      <point x="286" y="297"/>
      <point x="264" y="318"/>
      <point x="264" y="354" type="curve" smooth="yes"/>
      <point x="264" y="374"/>
      <point x="255" y="412"/>
      <point x="244" y="428" type="curve"/>
      <point x="175" y="428" type="line"/>
      <point x="175" y="373" type="line" smooth="yes"/>
      <point x="175" y="316"/>
      <point x="157" y="292"/>
      <point x="110" y="292" type="curve" smooth="yes"/>
      <point x="20" y="292" type="line"/>
      <point x="20" y="229" type="line"/>
      <point x="51" y="222"/>
      <point x="84" y="219"/>
      <point x="119" y="219" type="curve" smooth="yes"/>
      <point x="180" y="219"/>
      <point x="207" y="245"/>
      <point x="222" y="296" type="curve"/>
      <point x="239" y="245"/>
      <point x="273" y="219"/>
      <point x="323" y="219" type="curve" smooth="yes"/>
      <point x="350" y="219"/>
      <point x="373" y="227"/>
      <point x="391" y="243" type="curve"/>
      <point x="390" y="224"/>
      <point x="389" y="207"/>
      <point x="389" y="184" type="curve" smooth="yes"/>
      <point x="389" y="-24"/>
      <point x="464" y="-118"/>
      <point x="620" y="-118" type="curve" smooth="yes"/>
      <point x="775" y="-118"/>
      <point x="851" y="-23"/>
      <point x="851" y="184" type="curve" smooth="yes"/>
      <point x="851" y="199"/>
      <point x="851" y="214"/>
      <point x="850" y="227" type="curve"/>
      <point x="863" y="222"/>
      <point x="877" y="219"/>
      <point x="894" y="219" type="curve" smooth="yes"/>
      <point x="921" y="219"/>
      <point x="944" y="227"/>
      <point x="961" y="243" type="curve"/>
      <point x="961" y="224"/>
      <point x="960" y="207"/>
      <point x="960" y="184" type="curve" smooth="yes"/>
      <point x="960" y="-24"/>
      <point x="1035" y="-118"/>
      <point x="1191" y="-118" type="curve" smooth="yes"/>
      <point x="1346" y="-118"/>
      <point x="1422" y="-23"/>
      <point x="1422" y="184" type="curve" smooth="yes"/>
      <point x="1422" y="267"/>
      <point x="1414" y="331"/>
    </contour>
  </outline>
</glyph>
<glyph name="u10B3110B17" format="2">
  <advance width="1510"/>
  <outline>
    <contour>
      <point x="85" y="-138" type="line"/>
      <point x="174" y="-138" type="line"/>
      <point x="174" y="127" type="line"/>
      <point x="201" y="98"/>
      <point x="241" y="84"/>
      <point x="292" y="84" type="curve" smooth="yes"/>
      <point x="341" y="84"/>
      <point x="381" y="91"/>
      <point x="412" y="104" type="curve"/>
      <point x="431" y="-48"/>
      <point x="504" y="-118"/>
      <point x="639" y="-118" type="curve" smooth="yes"/>
      <point x="794" y="-118"/>
      <point x="870" y="-23"/>
      <point x="870" y="184" type="curve" smooth="yes"/>
      <point x="870" y="199"/>
      <point x="869" y="214"/>
      <point x="869" y="227" type="curve"/>
      <point x="882" y="222"/>
      <point x="896" y="219"/>
      <point x="913" y="219" type="curve" smooth="yes"/>
      <point x="940" y="219"/>
      <point x="962" y="227"/>
      <point x="980" y="243" type="curve"/>
      <point x="979" y="224"/>
      <point x="979" y="207"/>
      <point x="979" y="184" type="curve" smooth="yes"/>
      <point x="979" y="-24"/>
      <point x="1054" y="-118"/>
      <point x="1209" y="-118" type="curve" smooth="yes"/>
      <point x="1365" y="-118"/>
      <point x="1440" y="-23"/>
      <point x="1440" y="184" type="curve" smooth="yes"/>
      <point x="1440" y="266"/>
      <point x="1435" y="333"/>
      <point x="1408" y="428" type="curve"/>
      <point x="1320" y="428" type="line"/>
      <point x="1347" y="325"/>
      <point x="1352" y="276"/>
      <point x="1352" y="188" type="curve" smooth="yes"/>
      <point x="1352" y="28"/>
      <point x="1304" y="-46"/>
      <point x="1209" y="-46" type="curve" smooth="yes"/>
      <point x="1114" y="-46"/>
      <point x="1067" y="28"/>
      <point x="1067" y="188" type="curve" smooth="yes"/>
      <point x="1067" y="273"/>
      <point x="1074" y="326"/>
      <point x="1098" y="428" type="curve"/>
      <point x="1010" y="428" type="line"/>
      <point x="983" y="315"/>
      <point x="968" y="297"/>
      <point x="916" y="297" type="curve" smooth="yes"/>
      <point x="888" y="297"/>
      <point x="868" y="308"/>
      <point x="859" y="325" type="curve"/>
      <point x="855" y="358"/>
      <point x="849" y="391"/>
      <point x="837" y="428" type="curve"/>
      <point x="750" y="428" type="line"/>
      <point x="774" y="324"/>
      <point x="781" y="276"/>
      <point x="781" y="188" type="curve" smooth="yes"/>
      <point x="781" y="28"/>
      <point x="732" y="-46"/>
      <point x="639" y="-46" type="curve" smooth="yes"/>
      <point x="543" y="-46"/>
      <point x="497" y="28"/>
      <point x="497" y="188" type="curve" smooth="yes"/>
      <point x="497" y="273"/>
      <point x="503" y="326"/>
      <point x="527" y="428" type="curve"/>
      <point x="439" y="428" type="line"/>
      <point x="418" y="353"/>
      <point x="410" y="289"/>
      <point x="409" y="238" type="curve"/>
      <point x="396" y="177"/>
      <point x="352" y="157"/>
      <point x="285" y="157" type="curve" smooth="yes"/>
      <point x="180" y="157"/>
      <point x="174" y="196"/>
      <point x="174" y="283" type="curve" smooth="yes"/>
      <point x="174" y="429" type="line"/>
      <point x="85" y="429" type="line"/>
    </contour>
  </outline>
</glyph>
<glyph name="u10B3110B19" format="2">
  <advance width="1448"/>
  <outline>
    <contour>
      <point x="517" y="-118" type="curve" smooth="yes"/>
      <point x="694" y="-118"/>
      <point x="788" y="-22"/>
      <point x="788" y="198" type="curve" smooth="yes"/>
      <point x="788" y="235" type="line"/>
      <point x="807" y="224"/>
      <point x="827" y="219"/>
      <point x="851" y="219" type="curve" smooth="yes"/>
      <point x="878" y="219"/>
      <point x="900" y="227"/>
      <point x="917" y="243" type="curve"/>
      <point x="917" y="184" type="line" smooth="yes"/>
      <point x="917" y="-23"/>
      <point x="992" y="-118"/>
      <point x="1147" y="-118" type="curve" smooth="yes"/>
      <point x="1303" y="-118"/>
      <point x="1378" y="-23"/>
      <point x="1378" y="184" type="curve" smooth="yes"/>
      <point x="1378" y="266"/>
      <point x="1373" y="333"/>
      <point x="1346" y="428" type="curve"/>
      <point x="1258" y="428" type="line"/>
      <point x="1285" y="325"/>
      <point x="1290" y="276"/>
      <point x="1290" y="188" type="curve" smooth="yes"/>
      <point x="1290" y="28"/>
      <point x="1242" y="-46"/>
      <point x="1147" y="-46" type="curve" smooth="yes"/>
      <point x="1052" y="-46"/>
      <point x="1005" y="28"/>
      <point x="1005" y="188" type="curve" smooth="yes"/>
      <point x="1005" y="273"/>
      <point x="1012" y="326"/>
      <point x="1036" y="428" type="curve"/>
      <point x="948" y="428" type="line"/>
      <point x="918" y="315"/>
      <point x="907" y="297"/>
      <point x="854" y="297" type="curve" smooth="yes"/>
      <point x="814" y="297"/>
      <point x="791" y="318"/>
      <point x="791" y="354" type="curve" smooth="yes"/>
      <point x="791" y="374"/>
      <point x="781" y="413"/>
      <point x="771" y="428" type="curve"/>
      <point x="695" y="428" type="line"/>
      <point x="698" y="381"/>
      <point x="700" y="275"/>
      <point x="700" y="189" type="curve" smooth="yes"/>
      <point x="700" y="29"/>
      <point x="645" y="-46"/>
      <point x="518" y="-46" type="curve" smooth="yes"/>
      <point x="451" y="-46"/>
      <point x="393" y="2"/>
      <point x="375" y="94" type="curve"/>
      <point x="420" y="94" type="line" smooth="yes"/>
      <point x="512" y="94"/>
      <point x="558" y="128"/>
      <point x="558" y="209" type="curve" smooth="yes"/>
      <point x="558" y="349"/>
      <point x="502" y="438"/>
      <point x="417" y="438" type="curve" smooth="yes"/>
      <point x="341" y="438"/>
      <point x="276" y="342"/>
      <point x="276" y="210" type="curve" smooth="yes"/>
      <point x="276" y="202"/>
      <point x="276" y="192"/>
      <point x="277" y="183" type="curve"/>
      <point x="210" y="242"/>
      <point x="164" y="388"/>
      <point x="144" y="428" type="curve"/>
      <point x="51" y="428" type="line"/>
      <point x="101" y="359"/>
      <point x="122" y="300"/>
      <point x="122" y="212" type="curve" smooth="yes"/>
      <point x="122" y="139"/>
      <point x="95" y="65"/>
      <point x="50" y="0" type="curve"/>
      <point x="134" y="0" type="line"/>
      <point x="185" y="64"/>
      <point x="196" y="118"/>
      <point x="201" y="185" type="curve"/>
      <point x="209" y="167"/>
      <point x="241" y="127"/>
      <point x="284" y="105" type="curve"/>
      <point x="307" y="-42"/>
      <point x="386" y="-118"/>
    </contour>
    <contour>
      <point x="365" y="162" type="line"/>
      <point x="365" y="200" type="line" smooth="yes"/>
      <point x="365" y="304"/>
      <point x="385" y="365"/>
      <point x="417" y="365" type="curve" smooth="yes"/>
      <point x="450" y="365"/>
      <point x="468" y="310"/>
      <point x="468" y="211" type="curve" smooth="yes"/>
      <point x="468" y="179"/>
      <point x="454" y="162"/>
      <point x="411" y="162" type="curve" smooth="yes"/>
    </contour>
  </outline>
</glyph>
